<svg width="455" height="680" viewBox="0 0 455 680" fill="none" xmlns="http://www.w3.org/2000/svg">
<path fill-rule="evenodd" clip-rule="evenodd" d="M317.515 202.993L284.947 198.53C284.947 215.597 281.536 229.493 280.181 246.627C291.833 246.627 310.831 247.191 322.483 247.191C321.703 231.624 318.317 218.581 317.515 202.993Z" fill="#FF99CC" stroke="#242837" stroke-width="2.75" stroke-miterlimit="22.93"/>
<path fill-rule="evenodd" clip-rule="evenodd" d="M174.067 611.872L146.462 564.184C133.145 572.267 129.862 588.243 118.169 590.797C107.654 593.099 96.5658 594.686 82.329 586.081C51.3637 567.359 32.4434 591.408 32.4434 591.408C33.5962 592.861 51.829 609.907 63.8067 619.666C74.3421 628.246 76.6736 630.666 88.5737 635.3C98.0804 639.008 109.996 643.011 111.123 643.776L103.886 653.954L126.28 669.417C129.232 666.257 174.067 611.872 174.067 611.872Z" fill="#FFCC00" stroke="#242837" stroke-width="2.75" stroke-miterlimit="22.93"/>
<path d="M37.499 585.863C38.595 586.38 55.0391 603.132 72.3621 615.249C88.6563 626.627 102.862 632.734 148.545 643.828" stroke="#242837" stroke-width="2.75" stroke-miterlimit="22.93"/>
<path d="M322.803 677.95L280.635 501.891" stroke="#393C47" stroke-width="2.75" stroke-miterlimit="22.93"/>
<path d="M211.799 677.95L253.966 501.891" stroke="#242837" stroke-width="2.75" stroke-miterlimit="22.93"/>
<path d="M232.88 589.923H302.363" stroke="#393C47" stroke-width="2.75" stroke-miterlimit="22.93"/>
<path fill-rule="evenodd" clip-rule="evenodd" d="M357.578 501.601C397.518 501.601 437.618 468.906 446.69 428.949L453.069 400.862C462.136 360.9 436.884 328.21 396.939 328.21C356.999 328.21 316.894 360.9 307.827 400.862L301.448 428.949C292.381 468.906 317.639 501.601 357.578 501.601Z" fill="#FFCCCC"/>
<path d="M363.524 484.317H220.039V501.895H363.524V484.317Z" fill="#FFCCCC"/>
<path d="M402.992 677.95L360.825 501.891" stroke="#393C47" stroke-width="2.75" stroke-miterlimit="22.93"/>
<path d="M291.988 677.95L334.156 501.891" stroke="#393C47" stroke-width="2.75" stroke-miterlimit="22.93"/>
<path d="M313.074 589.923H382.552" stroke="#393C47" stroke-width="2.75" stroke-miterlimit="22.93"/>
<path fill-rule="evenodd" clip-rule="evenodd" d="M172.629 380.129C173.317 380.129 249.82 380.129 250.492 380.17C277.549 381.256 267.371 403.07 268.068 430.687C268.797 459.002 229.452 575.598 201.475 575.598C194.987 575.598 149.051 453.929 142.595 436.412C133.15 410.802 140.372 380.129 172.629 380.129Z" fill="#FFEFDE" stroke="#242837" stroke-width="2.75" stroke-miterlimit="22.93"/>
<path fill-rule="evenodd" clip-rule="evenodd" d="M245.106 467.53L202.825 470.152L168.38 509.716L202.199 575.598H262.884L245.106 467.53Z" fill="#FFEFDE" stroke="#242837" stroke-width="2.75" stroke-miterlimit="22.93"/>
<path fill-rule="evenodd" clip-rule="evenodd" d="M260.692 575.598H201.465C202.204 577.91 203.693 584.333 204.437 586.655C212.709 612.436 219.77 638.227 188.381 646.512C161.065 653.716 163.5 677.542 165.692 676.958C165.692 676.958 201.47 677.635 206.133 677.687C216.865 677.806 231.283 675.184 244.325 656.147C250.172 647.603 255.341 637.57 257.926 635.827L266.094 645.028L286.426 626.301C286.426 626.301 282.642 620.007 269.702 602.982C268.586 601.513 266.383 594.242 264.533 588.212C263.044 583.51 261.064 575.489 260.692 575.598Z" fill="#FFCC00" stroke="#242837" stroke-width="2.75" stroke-miterlimit="22.93"/>
<path d="M164.632 669.976H205.75C236.116 669.976 239.766 645.767 268.25 599.827" stroke="#242837" stroke-width="2.75" stroke-miterlimit="22.93"/>
<path fill-rule="evenodd" clip-rule="evenodd" d="M243.379 379.068C243.379 379.068 378.303 379.482 382.563 379.642L386.393 359.406C413.001 356.964 420.543 336.81 412.602 315.819C403.396 291.475 379.052 264.908 364.909 241.434C342.551 204.332 309.269 221.104 319.19 238.119C318.864 238.693 315.509 228.567 315.178 229.12C311.591 235.125 303.805 241.936 299.84 245.944C288.622 257.322 282.584 252.667 274.163 228.588C269.79 216.072 251.418 211.521 230.853 235.771C223.559 244.377 160.129 296.714 169.455 335.466C182.834 391.046 243.379 379.068 243.379 379.068Z" fill="#99CC33"/>
<path fill-rule="evenodd" clip-rule="evenodd" d="M168.752 304.265C172.617 304.267 176.396 303.121 179.61 300.973C182.824 298.826 185.329 295.773 186.809 292.201C188.289 288.629 188.677 284.698 187.923 280.906C187.17 277.113 185.309 273.63 182.577 270.895C179.844 268.161 176.362 266.298 172.572 265.543C168.781 264.789 164.852 265.176 161.281 266.655C157.71 268.135 154.658 270.64 152.51 273.855C150.363 277.07 149.217 280.85 149.217 284.716C149.226 289.897 151.287 294.863 154.949 298.527C158.61 302.191 163.574 304.255 168.752 304.265Z" fill="#242837" stroke="#242837" stroke-width="2.75" stroke-miterlimit="22.93"/>
<path d="M210.968 367.219C221.469 364.73 227.965 354.195 225.477 343.69C222.988 333.184 212.458 326.685 201.957 329.174C191.456 331.664 184.96 342.198 187.448 352.704C189.936 363.21 200.466 369.708 210.968 367.219Z" fill="#242837" stroke="#242837" stroke-width="2.75" stroke-miterlimit="22.93"/>
<path fill-rule="evenodd" clip-rule="evenodd" d="M231.334 309.488C235.2 309.489 238.978 308.344 242.192 306.196C245.407 304.048 247.912 300.995 249.392 297.423C250.871 293.851 251.259 289.919 250.505 286.127C249.751 282.334 247.89 278.85 245.157 276.116C242.424 273.382 238.941 271.52 235.15 270.766C231.359 270.012 227.43 270.399 223.859 271.879C220.288 273.36 217.237 275.866 215.09 279.082C212.943 282.297 211.798 286.078 211.799 289.945C211.81 295.125 213.871 300.089 217.533 303.752C221.194 307.415 226.157 309.477 231.334 309.488Z" fill="#242837" stroke="#242837" stroke-width="2.75" stroke-miterlimit="22.93"/>
<path fill-rule="evenodd" clip-rule="evenodd" d="M270.287 391.196C274.152 391.196 277.93 390.05 281.144 387.901C284.357 385.753 286.862 382.7 288.341 379.127C289.819 375.555 290.206 371.624 289.452 367.832C288.697 364.039 286.836 360.556 284.102 357.822C281.369 355.089 277.887 353.227 274.096 352.473C270.305 351.72 266.376 352.108 262.805 353.588C259.235 355.068 256.183 357.575 254.037 360.79C251.89 364.006 250.745 367.786 250.746 371.653C250.757 376.833 252.819 381.799 256.482 385.462C260.144 389.125 265.108 391.187 270.287 391.196Z" fill="#242837" stroke="#242837" stroke-width="2.75" stroke-miterlimit="22.93"/>
<path fill-rule="evenodd" clip-rule="evenodd" d="M243.379 379.068C243.379 379.068 378.303 379.482 382.563 379.642L386.393 359.406C413.001 356.964 420.543 336.81 412.602 315.819C403.396 291.475 379.052 264.908 364.909 241.434C342.551 204.332 309.269 221.104 319.19 238.119C318.864 238.693 315.509 228.567 315.178 229.12C311.591 235.125 303.805 241.936 299.84 245.944C288.622 257.322 282.584 252.667 274.163 228.588C269.79 216.072 251.418 211.521 230.853 235.771C223.559 244.377 160.129 296.714 169.455 335.466C182.834 391.046 243.379 379.068 243.379 379.068Z" stroke="#242837" stroke-width="2.75" stroke-miterlimit="22.93"/>
<path d="M386.393 359.406C342.106 357.673 289.134 260.456 288.689 257.756" stroke="#242837" stroke-width="2.75" stroke-miterlimit="22.93"/>
<path d="M362.278 275.935C358.731 268.488 329.224 251.959 319.19 238.119" stroke="#242837" stroke-width="2.75" stroke-miterlimit="22.93"/>
<path fill-rule="evenodd" clip-rule="evenodd" d="M259.534 378.614C206.5 379.844 200.819 419.216 191.08 440.157C187.156 448.576 129.154 579.554 126.177 586.479L167.357 620.23C167.357 620.23 275.503 484.39 279.385 484.39C279.54 484.39 337.526 485.311 340.587 485.311C410.959 485.311 415.792 410.771 381.824 379.632L259.534 378.614Z" fill="#FFEFDE" stroke="#242837" stroke-width="2.75" stroke-miterlimit="22.93"/>
<path d="M233.976 301.586C232.942 303.07 219.987 321.755 221.678 322.386C235.517 327.325 243.462 327.775 258.381 334.612C258.836 334.824 260.051 335.471 260.33 335.569" stroke="#242837" stroke-width="2.75" stroke-miterlimit="22.93"/>
<path fill-rule="evenodd" clip-rule="evenodd" d="M326.453 113.404C330.913 113.404 335.273 114.727 338.981 117.205C342.689 119.684 345.579 123.207 347.286 127.33C348.993 131.452 349.439 135.987 348.569 140.364C347.699 144.74 345.552 148.759 342.398 151.914C339.244 155.069 335.226 157.217 330.852 158.088C326.478 158.958 321.944 158.512 317.824 156.804C313.704 155.097 310.182 152.205 307.704 148.496C305.226 144.786 303.904 140.424 303.904 135.962C303.904 129.979 306.28 124.242 310.508 120.011C314.737 115.78 320.473 113.404 326.453 113.404Z" fill="#FFCC00" stroke="#242837" stroke-width="2.75" stroke-miterlimit="22.93"/>
<path fill-rule="evenodd" clip-rule="evenodd" d="M287.826 211.304C292.794 214.774 313.245 217.753 318.6 196.399C323.444 177.083 311.88 189.402 305.723 168.146C304.131 162.685 297.643 152.771 288.524 158.713C271.966 169.511 272.302 202.771 287.826 211.304Z" fill="#FF99CC" stroke="#242837" stroke-width="2.75" stroke-miterlimit="22.93"/>
<path d="M291.301 182.497C289.9 192.137 283.283 188.817 290.685 195.38" stroke="#242837" stroke-width="2.75" stroke-miterlimit="22.93"/>
<path d="M286.72 176.669C287.046 174.936 287.661 172.242 287.754 171.978" stroke="#242837" stroke-width="2.75" stroke-miterlimit="22.93"/>
<path d="M297.437 178.05C297.762 176.323 298.377 173.623 298.47 173.359" stroke="#242837" stroke-width="2.75" stroke-miterlimit="22.93"/>
<path fill-rule="evenodd" clip-rule="evenodd" d="M291.471 157.394C295.746 169.486 311.141 208.398 320.317 206.468C342.623 201.814 351.034 171.927 336.684 151.131C326.272 136.071 306.83 135.249 293.182 143.746C290.737 145.267 288.721 146.606 287.062 147.785C277.022 149.037 270.767 155.026 267.883 164.774C264.998 174.523 270.4 187.282 276.154 194.056C275.963 180.351 280.01 166.047 288.53 159.137C289.415 158.409 290.407 157.821 291.471 157.394Z" fill="#FFCC00" stroke="#242837" stroke-width="2.75" stroke-miterlimit="22.93"/>
<path d="M295.209 155.889C298.037 151.87 304.044 151.643 308.484 157.399C308.639 157.601 308.536 157.575 308.768 157.689" stroke="#242837" stroke-width="2.75" stroke-miterlimit="22.93"/>
<path d="M291.802 166.776C289.977 169.361 286.116 169.517 283.241 165.803C283.143 165.674 283.21 165.69 283.061 165.617" stroke="#242837" stroke-width="2.75" stroke-miterlimit="22.93"/>
<path d="M257.44 484.317L283.66 484.441" stroke="#242837" stroke-width="2.75" stroke-miterlimit="22.93"/>
<path fill-rule="evenodd" clip-rule="evenodd" d="M287.625 348.09C287.625 348.043 294.862 351.058 300.337 352.325C310.898 354.761 309.87 362.85 305.119 363.915C303.821 364.21 296.093 365.296 295.043 364.298C292.976 362.348 282.063 357.363 287.403 351.1C287.393 351.089 287.393 351.1 287.625 348.09Z" fill="#FF99CC" stroke="#242837" stroke-width="2.75" stroke-miterlimit="22.93"/>
<path fill-rule="evenodd" clip-rule="evenodd" d="M236.979 357.357C234.317 350.981 246.719 338.346 253.046 336.355C262.015 333.531 280.91 341.868 288.199 346.305C296.108 351.136 296.739 364.711 296.356 364.665C294.645 364.463 259.353 364.603 255.481 364.737C252.648 364.83 238.882 361.908 236.979 357.357Z" fill="#FF99CC" stroke="#242837" stroke-width="2.75" stroke-miterlimit="22.93"/>
<path d="M320.953 363.636H167.408C162.869 363.636 159.189 367.318 159.189 371.859C159.189 376.401 162.869 380.082 167.408 380.082H320.953C325.492 380.082 329.172 376.401 329.172 371.859C329.172 367.318 325.492 363.636 320.953 363.636Z" fill="#242837" stroke="#242837" stroke-width="2.75" stroke-miterlimit="22.93"/>
<path d="M284.59 364.567C284.487 361.464 282.616 352.915 278.583 352.32" stroke="#242837" stroke-width="2.75" stroke-miterlimit="22.93"/>
<path d="M270.974 364.598C270.974 363.078 269.795 356.892 267.872 356.572" stroke="#242837" stroke-width="2.75" stroke-miterlimit="22.93"/>
<path fill-rule="evenodd" clip-rule="evenodd" d="M74.3571 258.811H239.781C243.436 258.811 247.246 261.8 248.254 265.451L277.865 372.862C278.873 376.514 276.707 379.503 273.052 379.503H107.628C103.978 379.503 100.163 376.514 99.1552 372.862L69.5495 265.451C68.5414 261.8 70.7023 258.811 74.3571 258.811Z" fill="#9B9DA9" stroke="#9B9DA9" stroke-width="2.75" stroke-miterlimit="22.93"/>
<path fill-rule="evenodd" clip-rule="evenodd" d="M161.06 306.675H170.045C173.699 306.675 177.473 309.664 178.435 313.315L180.797 322.293C181.759 325.945 179.556 328.934 175.907 328.934H166.943C163.293 328.934 159.519 325.945 158.558 322.293L156.195 313.315C155.208 309.664 157.405 306.675 161.06 306.675Z" fill="white" stroke="#9B9DA9" stroke-width="2.75" stroke-miterlimit="22.93"/>
<path fill-rule="evenodd" clip-rule="evenodd" d="M163.355 294.733C164.589 294.775 165.773 295.235 166.712 296.037C167.651 296.84 168.29 297.937 168.525 299.15C168.646 299.69 168.642 300.251 168.513 300.79C168.383 301.328 168.132 301.83 167.779 302.256C167.425 302.682 166.978 303.021 166.473 303.247C165.968 303.474 165.418 303.581 164.865 303.561C163.631 303.521 162.448 303.062 161.508 302.261C160.569 301.459 159.93 300.362 159.695 299.15C159.573 298.609 159.576 298.048 159.705 297.509C159.834 296.97 160.085 296.467 160.439 296.041C160.792 295.614 161.239 295.274 161.745 295.047C162.251 294.821 162.801 294.713 163.355 294.733Z" fill="white" stroke="#9B9DA9" stroke-width="2.75" stroke-miterlimit="22.93"/>
<path fill-rule="evenodd" clip-rule="evenodd" d="M2 145.137H168.489L190.635 232.596H24.1461L2 145.137Z" stroke="#333335" stroke-width="2.75" stroke-miterlimit="22.93"/>
<path fill-rule="evenodd" clip-rule="evenodd" d="M16.1646 154.504H77.4334L93.9499 222.527H32.6811L16.1646 154.504Z" fill="#339966" stroke="#339966" stroke-width="2.75" stroke-miterlimit="22.93"/>
<path fill-rule="evenodd" clip-rule="evenodd" d="M78.4468 45.908H244.936L267.082 133.372H100.593L78.4468 45.908Z" fill="#FF6600" stroke="#FF6600" stroke-width="2.75" stroke-miterlimit="22.93"/>
<path fill-rule="evenodd" clip-rule="evenodd" d="M55.9019 23.4731H122.03L140.284 92.9496H74.1553L55.9019 23.4731Z" fill="white" stroke="#242837" stroke-width="2.75" stroke-miterlimit="22.93"/>
<path d="M244.222 89.7847H172.567" stroke="#242837" stroke-width="2.75" stroke-miterlimit="22.93"/>
<path d="M244.692 97.4802H202.69" stroke="#242837" stroke-width="2.75" stroke-miterlimit="22.93"/>
<path d="M247.07 104.607H203.926" stroke="#242837" stroke-width="2.75" stroke-miterlimit="22.93"/>
<path d="M199.206 117.086C211.613 159.846 193.907 185.968 147.914 187.059" stroke="#FFC947" stroke-width="2.75" stroke-miterlimit="22.93"/>
<path fill-rule="evenodd" clip-rule="evenodd" d="M140.889 187.323L144.87 184.127L148.85 180.936L150.448 187.612L152.04 194.284L146.462 190.803L140.889 187.323Z" fill="#FFC947" stroke="#FFC947" stroke-width="2.75" stroke-miterlimit="22.93"/>
<path d="M195.127 226.467L260.159 136.107" stroke="#242837" stroke-width="2.75" stroke-miterlimit="22.93" stroke-dasharray="5.49 8.24"/>
<path d="M63.4033 29.6479L132.783 86.7744" stroke="#242837" stroke-width="2.75" stroke-miterlimit="22.93"/>
<path d="M77.8472 87.5923L118.34 28.8315" stroke="#242837" stroke-width="2.75" stroke-miterlimit="22.93"/>
<path d="M229.716 25.5316L238.081 5L243.017 22.4906L273.047 5L262.786 35.7974L288.25 39.2211L276.087 49.492L287.491 60.9008L262.026 59.3803" stroke="#FFCC00" stroke-width="2.75" stroke-miterlimit="22.93"/>
<path d="M36.8114 134.68L20.6567 70.2197H58.2855" stroke="#FF0000" stroke-width="2.75" stroke-miterlimit="22.93"/>
<path fill-rule="evenodd" clip-rule="evenodd" d="M36.7131 129.534C37.5407 129.533 38.3499 129.778 39.0385 130.237C39.727 130.696 40.2638 131.35 40.581 132.115C40.8982 132.879 40.9815 133.721 40.8202 134.533C40.659 135.345 40.2606 136.091 39.6754 136.677C39.0903 137.262 38.3446 137.661 37.5329 137.822C36.7211 137.983 35.8798 137.9 35.1154 137.582C34.351 137.265 33.6979 136.728 33.2388 136.039C32.7797 135.35 32.5351 134.541 32.5361 133.713C32.5375 132.605 32.978 131.543 33.761 130.76C34.5441 129.976 35.6057 129.536 36.7131 129.534Z" fill="#FF0000" stroke="#FF0000" stroke-width="2.75" stroke-miterlimit="22.93"/>
<path fill-rule="evenodd" clip-rule="evenodd" d="M56.7656 66.0413C57.593 66.0413 58.4018 66.2868 59.0896 66.7467C59.7775 67.2067 60.3135 67.8604 60.6299 68.6252C60.9463 69.3901 61.0288 70.2316 60.867 71.0433C60.7052 71.855 60.3064 72.6005 59.721 73.1855C59.1356 73.7704 58.3899 74.1684 57.5783 74.3293C56.7667 74.4901 55.9257 74.4066 55.1616 74.0891C54.3975 73.7716 53.7447 73.2346 53.2858 72.5458C52.8269 71.8571 52.5825 71.0477 52.5835 70.22C52.5849 69.1112 53.0261 68.0484 53.8102 67.2649C54.5944 66.4814 55.6573 66.0413 56.7656 66.0413Z" fill="#FF0000" stroke="#FF0000" stroke-width="2.75" stroke-miterlimit="22.93"/>
<path fill-rule="evenodd" clip-rule="evenodd" d="M292.562 266.361L319.174 238.119C315.039 231.959 321.092 229.787 321.082 223.028C321.082 212.017 304.948 205.604 294.748 210.424C294.138 210.714 286.994 202.191 286.994 202.191C281.142 196.363 275.621 201.912 276.888 210.466C276.96 210.942 273.579 211.412 271.853 214.086C269.48 217.779 270.622 219.909 271.139 222.619C271.212 223.007 270.105 223.866 269.015 226.995C268.317 229.006 266.947 232.223 269.433 236.123C271.651 239.593 292.562 266.32 292.562 266.361Z" fill="#FF99CC" stroke="#242837" stroke-width="2.75" stroke-miterlimit="22.93"/>
<path d="M294.201 210.037C295.235 211.423 304.1 220.835 304.111 220.897" stroke="#242837" stroke-width="2.75" stroke-miterlimit="22.93"/>
<path d="M276.924 210.476C279.149 213.293 281.52 215.991 284.027 218.56" stroke="#242837" stroke-width="2.75" stroke-miterlimit="22.93"/>
<path d="M271.175 222.64C270.043 222.573 275.037 227.709 275.456 228.122" stroke="#242837" stroke-width="2.75" stroke-miterlimit="22.93"/>
<path d="M292.908 203.164C292.831 198.106 300.575 203.877 300.575 198.312" stroke="#242837" stroke-width="2.75" stroke-miterlimit="22.93"/>
</svg>
