<svg width="122" height="38" viewBox="0 0 122 38" fill="none" xmlns="http://www.w3.org/2000/svg">
<g clip-path="url(#clip0_1_12335)">
<path d="M34.7365 27.0769C34.5464 26.6198 34.3682 26.1394 34.1781 25.7292L33.299 23.7722L33.2633 23.737C30.6497 18.112 27.8579 12.3933 24.8998 6.76828L24.781 6.5339C24.484 5.98312 24.187 5.37374 23.8781 4.81124C23.4979 4.14328 23.1297 3.42843 22.5238 2.74874C21.9332 2.03757 21.1899 1.46459 20.3476 1.07115C19.5053 0.677715 18.5849 0.473633 17.653 0.473633C16.721 0.473633 15.8006 0.677715 14.9583 1.07115C14.116 1.46459 13.3727 2.03757 12.7821 2.74874C12.2238 3.42843 11.808 4.14328 11.4278 4.81124C11.1308 5.42062 10.8338 6.01828 10.5249 6.56906L10.4061 6.80343C7.49552 12.4284 4.65619 18.1472 2.04258 23.7722L1.9713 23.8425C1.70994 24.4519 1.40106 25.0847 1.10406 25.7644C0.913978 26.1745 0.723897 26.6198 0.533816 27.112C0.0206369 28.4008 -0.143237 29.7993 0.0583437 31.1696C0.259925 32.5399 0.820004 33.8348 1.68338 34.9266C2.54676 36.0183 3.68364 36.8694 4.98197 37.3958C6.28031 37.9221 7.69528 38.1057 9.08745 37.9284C10.4221 37.7551 11.7073 37.3166 12.8653 36.6394C14.4097 35.7839 15.8947 34.5417 17.5579 32.7487C19.2211 34.5417 20.7418 35.7839 22.2505 36.6511C23.7015 37.4911 25.3445 37.9548 27.0263 37.9987C28.9739 38.0067 30.8586 37.3194 32.3325 36.0636C33.8064 34.8079 34.77 33.0685 35.0454 31.1667C35.3635 29.8 35.2559 28.3704 34.7365 27.0652V27.0769ZM17.6767 29.0222C15.6334 26.4441 14.3028 24.0769 13.8513 22.0495C13.6643 21.2983 13.624 20.5188 13.7325 19.7527C13.8157 19.155 14.0414 18.6277 14.3503 18.1823C15.0631 17.1628 16.3105 16.53 17.6767 16.53C18.3255 16.5104 18.9691 16.6501 19.5497 16.9365C20.1303 17.2228 20.6297 17.6469 21.0031 18.1706C21.312 18.6394 21.5377 19.155 21.609 19.7527C21.7278 20.4323 21.6803 21.2175 21.4902 22.0495C21.0388 24.0417 19.7082 26.4323 17.6767 29.0222ZM32.8119 30.7566C32.6769 31.7221 32.2878 32.6359 31.6833 33.407C31.0789 34.178 30.2801 34.7794 29.3667 35.1511C28.4638 35.5261 27.4659 35.6316 26.4917 35.5261C25.5413 35.4089 24.5909 35.1042 23.6167 34.5417C21.9993 33.5556 20.5449 32.3304 19.3043 30.9089C21.7991 27.862 23.3079 25.0847 23.8781 22.612C24.1514 21.4402 24.187 20.3855 24.0682 19.4128C23.9198 18.4909 23.5713 17.6114 23.0465 16.8347C22.4473 15.9924 21.6474 15.3082 20.7173 14.8424C19.7872 14.3765 18.7553 14.1431 17.7124 14.1628C15.5146 14.1628 13.5543 15.1706 12.3663 16.823C11.8315 17.5978 11.4859 18.4842 11.3565 19.4128C11.2021 20.3972 11.2377 21.487 11.5466 22.612C12.1169 25.0847 13.6613 27.8972 16.1204 30.9323C14.9009 32.381 13.4431 33.617 11.808 34.5886C10.8219 35.1511 9.88341 35.4441 8.93301 35.5612C7.45499 35.748 5.96199 35.3518 4.77851 34.4586C3.59503 33.5655 2.81675 32.2477 2.61282 30.7917C2.49402 29.8542 2.57718 28.9167 2.95735 27.862C3.07615 27.487 3.25435 27.112 3.44443 26.6667C3.70579 26.0573 4.01467 25.4245 4.31167 24.7917L4.35919 24.7097C6.92528 19.1198 9.72897 13.4128 12.6396 7.82296L12.7584 7.58859C13.0554 7.02609 13.3524 6.42843 13.6613 5.86593C13.9701 5.26828 14.3028 4.69406 14.7305 4.22531C15.1007 3.78939 15.5632 3.43883 16.0856 3.1983C16.608 2.95776 17.1775 2.83311 17.7539 2.83311C18.3304 2.83311 18.8999 2.95776 19.4223 3.1983C19.9446 3.43883 20.4072 3.78939 20.7774 4.22531C21.1932 4.69406 21.5377 5.26828 21.8466 5.86593C22.1436 6.42843 22.4406 7.03781 22.7495 7.58859L22.8683 7.82296C25.767 13.4128 28.5707 19.1198 31.1843 24.7097L31.22 24.7448C31.5289 25.3542 31.7902 26.0339 32.0872 26.6198C32.2773 27.0769 32.4674 27.4402 32.5862 27.8269C32.8119 28.8816 32.9307 29.8191 32.8119 30.7566ZM49.3489 28.7644C48.4537 28.7773 47.5671 28.5912 46.7547 28.22C45.9423 27.8487 45.2251 27.3018 44.6563 26.6198C43.3781 25.1667 42.6997 23.293 42.7555 21.3698C42.7359 19.4049 43.4362 17.499 44.7276 16.0027C45.3249 15.312 46.0685 14.7589 46.9059 14.3823C47.7434 14.0057 48.6543 13.8148 49.5746 13.823C50.4406 13.7996 51.2984 13.9938 52.0673 14.3874C52.8363 14.781 53.4911 15.361 53.9703 16.073L54.0891 14.2331H57.558V28.3894H54.0772L53.9584 26.3269C53.4644 27.087 52.7816 27.71 51.9748 28.1366C51.1681 28.5632 50.2642 28.7793 49.3489 28.7644ZM50.2518 25.3894C50.9408 25.3894 51.5467 25.2019 52.117 24.862C52.6397 24.487 53.0674 23.9948 53.4 23.3972C53.697 22.7995 53.8515 22.0847 53.8515 21.2878C53.8978 20.5957 53.7612 19.9036 53.4551 19.2791C53.149 18.6547 52.6838 18.1193 52.1051 17.7253C51.549 17.3835 50.907 17.2024 50.2518 17.2024C49.5966 17.2024 48.9546 17.3835 48.3985 17.7253C47.8758 18.1003 47.4481 18.5925 47.1155 19.1902C46.8013 19.8493 46.6468 20.5714 46.664 21.2995C46.6177 21.9916 46.7543 22.6838 47.0604 23.3082C47.3665 23.9327 47.8317 24.468 48.4104 24.862C48.9688 25.2019 49.5746 25.3894 50.2518 25.3894ZM63.4981 10.4128C63.4981 10.823 63.4268 11.198 63.2367 11.5027C63.0466 11.7956 62.7853 12.0652 62.4407 12.2527C62.0962 12.4402 61.7279 12.5105 61.3478 12.5105C60.9676 12.5105 60.5874 12.4402 60.2429 12.2527C59.9171 12.0737 59.6431 11.8155 59.447 11.5027C59.263 11.1688 59.1727 10.7926 59.1856 10.4128C59.1856 9.99093 59.2688 9.61593 59.447 9.32296C59.637 8.9714 59.9103 8.76046 60.2429 8.57296C60.5874 8.38546 60.9557 8.30343 61.3478 8.30343C61.7259 8.29484 62.0999 8.38318 62.433 8.55983C62.7662 8.73648 63.0472 8.99539 63.2486 9.31124C63.4215 9.6529 63.5071 10.0311 63.4981 10.4128ZM59.4588 28.3425V14.2097H63.2367V28.3659H59.447L59.4588 28.3425ZM73.3347 17.9128V17.9597C73.1565 17.8777 72.9189 17.8425 72.7407 17.8073C72.5031 17.7605 72.3131 17.7605 72.0873 17.7605C71.03 17.7605 70.234 18.0652 69.7113 18.698C69.1411 19.3425 68.8797 20.2448 68.8797 21.405V28.3542H65.09V14.198H68.5708L68.6896 16.3425C69.0698 15.5925 69.5212 15.03 70.1628 14.6081C70.8009 14.1982 71.5521 13.9935 72.313 14.0222C72.5863 14.0222 72.8477 14.0456 73.0734 14.0925C73.1922 14.1277 73.2635 14.1277 73.3347 14.1628V17.9128ZM74.8554 28.3425V8.39718H78.6332V16.0144C79.1678 15.3347 79.7737 14.8073 80.534 14.3972C81.7377 13.815 83.1051 13.6499 84.4156 13.9284C85.7261 14.207 86.9033 14.9129 87.7571 15.9323C89.0382 17.3885 89.7167 19.2669 89.6579 21.1941C89.6775 23.159 88.9772 25.0649 87.6858 26.5612C87.0885 27.2519 86.3449 27.805 85.5075 28.1816C84.6701 28.5582 83.7591 28.7491 82.8388 28.7409C81.9728 28.7643 81.115 28.5701 80.3461 28.1765C79.5771 27.7829 78.9223 27.2029 78.4432 26.4909L78.3244 28.3308L74.8554 28.3659V28.3425ZM82.1616 25.3894C82.8388 25.3894 83.4447 25.2019 84.0149 24.862C84.5376 24.487 84.9653 23.9948 85.298 23.3972C85.6068 22.7995 85.7494 22.0847 85.7494 21.2878C85.7494 20.5027 85.6068 19.7878 85.298 19.1902C84.986 18.6139 84.5477 18.1134 84.0149 17.7253C83.4588 17.3835 82.8168 17.2024 82.1616 17.2024C81.5065 17.2024 80.8644 17.3835 80.3083 17.7253C79.7737 18.1003 79.3579 18.5925 79.0134 19.1902C78.6992 19.8493 78.5447 20.5714 78.562 21.2995C78.5156 21.9916 78.6522 22.6838 78.9583 23.3082C79.2644 23.9327 79.7296 24.468 80.3083 24.862C80.8667 25.2019 81.4726 25.3894 82.1616 25.3894ZM91.0835 28.3542V14.198H94.5644L94.6832 16.0378C95.1206 15.3326 95.7411 14.7554 96.4805 14.366C97.2199 13.9766 98.0513 13.7891 98.8887 13.823C99.8464 13.8066 100.788 14.0692 101.595 14.5778C102.402 15.0864 103.039 15.8184 103.427 16.6823C103.843 17.573 104.068 18.6745 104.068 19.905V28.3894H100.279V20.3972C100.279 19.4128 100.053 18.6394 99.6015 18.0652C99.1501 17.5027 98.5323 17.198 97.7482 17.198C97.178 17.198 96.679 17.3152 96.2395 17.573C95.8237 17.8425 95.4791 18.1823 95.2178 18.6628C94.9535 19.1485 94.8225 19.6938 94.8376 20.2448V28.3542H91.0835ZM105.957 28.3542V8.38546H109.747V16.0027C110.26 15.3192 110.928 14.7631 111.697 14.3787C112.467 13.9942 113.316 13.7919 114.178 13.7878C115.074 13.7749 115.96 13.961 116.773 14.3322C117.585 14.7034 118.302 15.2504 118.871 15.9323C120.143 17.3884 120.817 19.2611 120.76 21.1823C120.781 23.1475 120.08 25.0538 118.788 26.5495C118.19 27.2402 117.447 27.7933 116.609 28.1699C115.772 28.5465 114.861 28.7374 113.941 28.7292C113.075 28.7526 112.217 28.5584 111.448 28.1648C110.679 27.7712 110.024 27.1911 109.545 26.4792L109.438 28.3191L105.957 28.3542ZM113.299 25.3894C113.988 25.3894 114.594 25.2019 115.153 24.862C115.687 24.487 116.103 23.9948 116.447 23.3972C116.744 22.7995 116.899 22.0847 116.899 21.2878C116.945 20.5957 116.809 19.9036 116.502 19.2791C116.196 18.6547 115.731 18.1193 115.153 17.7253C114.596 17.3835 113.954 17.2024 113.299 17.2024C112.644 17.2024 112.002 17.3835 111.446 17.7253C110.923 18.1003 110.496 18.5925 110.163 19.1902C109.831 19.8434 109.676 20.5698 109.711 21.2995C109.665 21.9916 109.802 22.6838 110.108 23.3082C110.414 23.9327 110.879 24.468 111.458 24.862C112.016 25.2019 112.586 25.3894 113.299 25.3894Z" fill="#FF385C"/>
</g>
<defs>
<clipPath id="clip0_1_12335">
<rect width="121.176" height="37.5" fill="white" transform="translate(0 0.5)"/>
</clipPath>
</defs>
</svg>
