<svg width="122" height="38" viewBox="0 0 122 38" fill="none" xmlns="http://www.w3.org/2000/svg">
<g clip-path="url(#clip0_1_12339)">
<path fill-rule="evenodd" clip-rule="evenodd" d="M75.1753 29.8263C68.1335 35.1563 57.9269 38.0001 49.1392 38.0001C36.8174 38.0001 25.7247 33.3201 17.3326 25.5362C16.6732 24.9241 17.264 24.09 18.0552 24.5666C27.1119 29.978 38.3102 33.2334 49.8777 33.2334C57.679 33.2334 66.261 31.5759 74.152 28.1363C75.3441 27.6163 76.341 28.9379 75.1753 29.8263Z" fill="#FF9900"/>
<path fill-rule="evenodd" clip-rule="evenodd" d="M78.1034 26.3865C77.2067 25.2057 72.1535 25.8286 69.8854 26.1049C69.1944 26.1915 69.0889 25.574 69.7113 25.1298C73.736 22.2211 80.3399 23.0607 81.11 24.0357C81.8801 25.0161 80.9096 31.8141 77.1276 35.0587C76.5474 35.557 75.9935 35.2916 76.252 34.6308C77.1012 32.4533 79.0054 27.5728 78.1034 26.3865Z" fill="#FF9900"/>
<path fill-rule="evenodd" clip-rule="evenodd" d="M70.0433 4.59503V1.7675C70.0433 1.33958 70.3598 1.05249 70.7396 1.05249H83.0667C83.4623 1.05249 83.7787 1.34499 83.7787 1.7675V4.18877C83.7735 4.59503 83.4412 5.12587 82.8504 5.96546L76.4627 15.331C78.8363 15.2714 81.3418 15.6343 83.4939 16.8802C83.9792 17.1618 84.1111 17.5735 84.148 17.9798V20.9969C84.148 21.4085 83.7049 21.8906 83.2407 21.6415C79.4482 19.5994 74.4108 19.3773 70.2174 21.6631C69.7901 21.9015 69.3418 21.4248 69.3418 21.0131V18.1477C69.3418 17.6873 69.3471 16.9018 69.7954 16.2031L77.1959 5.30462H70.7554C70.3598 5.30462 70.0433 5.01753 70.0433 4.59503Z" fill="black"/>
<path fill-rule="evenodd" clip-rule="evenodd" d="M25.076 22.2374H21.3257C20.967 22.2103 20.6821 21.9341 20.6558 21.582V1.81638C20.6558 1.42096 20.9775 1.10679 21.3784 1.10679H24.8755C25.2395 1.12303 25.5296 1.41012 25.556 1.76762V4.3514H25.6246C26.5371 1.85429 28.2514 0.689697 30.5617 0.689697C32.909 0.689697 34.3753 1.85429 35.4303 4.3514C36.3375 1.85429 38.4 0.689697 40.6101 0.689697C42.1819 0.689697 43.9015 1.35595 44.9512 2.85097C46.138 4.5139 45.8954 6.92976 45.8954 9.0477L45.8901 21.5224C45.8901 21.9178 45.5683 22.2374 45.1674 22.2374H41.4224C41.0479 22.2103 40.7472 21.9016 40.7472 21.5224V11.0465C40.7472 10.2123 40.8211 8.13227 40.6417 7.34143C40.3622 6.01434 39.5235 5.64058 38.4369 5.64058C37.5296 5.64058 36.5802 6.2635 36.1951 7.26018C35.8101 8.25686 35.847 9.9252 35.847 11.0465V21.5224C35.847 21.9178 35.5252 22.2374 35.1244 22.2374H31.3793C30.9995 22.2103 30.7041 21.9016 30.7041 21.5224L30.6989 11.0465C30.6989 8.84186 31.0523 5.59725 28.3885 5.59725C25.6931 5.59725 25.7986 8.76061 25.7986 11.0465V21.5224C25.7986 21.9178 25.4769 22.2374 25.076 22.2374" fill="black"/>
<path fill-rule="evenodd" clip-rule="evenodd" d="M94.3913 0.689697C99.9561 0.689697 102.968 5.59725 102.968 11.8373C102.968 17.8661 99.6396 22.6491 94.3913 22.6491C88.9266 22.6491 85.9517 17.7415 85.9517 11.6261C85.9517 5.47266 88.9635 0.689697 94.3913 0.689697ZM94.4229 4.72516C91.6589 4.72516 91.4849 8.59269 91.4849 11.0031C91.4849 13.419 91.4479 18.5757 94.3913 18.5757C97.2976 18.5757 97.4348 14.4157 97.4348 11.8806C97.4348 10.2123 97.3662 8.21894 96.8757 6.63726C96.4537 5.26141 95.615 4.72516 94.4229 4.72516Z" fill="black"/>
<path fill-rule="evenodd" clip-rule="evenodd" d="M110.184 22.2374H106.449C106.075 22.2103 105.774 21.9016 105.774 21.5224L105.769 1.75137C105.801 1.38845 106.112 1.10679 106.492 1.10679H109.968C110.295 1.12303 110.564 1.35054 110.638 1.65929V4.68182H110.706C111.756 1.97888 113.228 0.689697 115.817 0.689697C117.5 0.689697 119.14 1.31262 120.195 3.01889C121.177 4.60057 121.177 7.26018 121.177 9.17228V21.6145C121.134 21.9612 120.823 22.2374 120.454 22.2374H116.693C116.35 22.2103 116.065 21.9503 116.028 21.6145V10.8785C116.028 8.71728 116.271 5.55391 113.681 5.55391C112.769 5.55391 111.93 6.18225 111.513 7.13559C110.986 8.34353 110.917 9.54604 110.917 10.8785V21.5224C110.912 21.9178 110.585 22.2374 110.184 22.2374" fill="black"/>
<path fill-rule="evenodd" clip-rule="evenodd" d="M60.2166 12.796C60.2166 14.2964 60.2535 15.5477 59.515 16.8802C58.919 17.9635 57.9696 18.6298 56.9199 18.6298C55.4799 18.6298 54.6359 17.5031 54.6359 15.8402C54.6359 12.5576 57.5001 11.9618 60.2166 11.9618V12.796ZM63.9986 22.1831C63.7507 22.4106 63.392 22.4269 63.1124 22.2752C61.8676 21.2136 61.6408 20.7206 60.9603 19.7077C58.9032 21.8636 57.4421 22.5082 54.7783 22.5082C51.6188 22.5082 49.166 20.5094 49.166 16.5064C49.166 13.381 50.8117 11.2522 53.1643 10.2122C55.2003 9.29134 58.0434 9.12884 60.2166 8.87426V8.37592C60.2166 7.46049 60.2852 6.37714 59.7577 5.58631C59.3041 4.87671 58.4285 4.58421 57.6531 4.58421C56.2236 4.58421 54.9524 5.33713 54.6412 6.89715C54.5779 7.24382 54.33 7.58508 53.9871 7.60133L50.3528 7.20049C50.0469 7.13007 49.704 6.87548 49.7937 6.3934C50.6271 1.86502 54.6148 0.5 58.1805 0.5C60.0056 0.5 62.3898 0.99834 63.8298 2.41752C65.6548 4.16712 65.4808 6.50173 65.4808 9.04218V15.0439C65.4808 16.8477 66.2087 17.6385 66.8944 18.6135C67.1318 18.9602 67.1845 19.3773 66.8786 19.6373C66.1137 20.2927 64.7528 21.5115 64.0038 22.194L63.9986 22.1831" fill="black"/>
<path fill-rule="evenodd" clip-rule="evenodd" d="M11.0506 12.7962C11.0506 14.2966 11.0875 15.5479 10.349 16.8804C9.75298 17.9638 8.8088 18.63 7.75386 18.63C6.31385 18.63 5.47517 17.5033 5.47517 15.8404C5.47517 12.5579 8.33935 11.962 11.0506 11.962V12.7962ZM14.8325 22.1834C14.5846 22.4109 14.226 22.4271 13.9464 22.2755C12.7016 21.2138 12.48 20.7209 11.7943 19.7079C9.73715 21.8638 8.28133 22.5084 5.61231 22.5084C2.45802 22.5084 0 20.5096 0 16.5067C0 13.3812 1.65099 11.2524 3.99825 10.2124C6.03429 9.29158 8.87737 9.12908 11.0506 8.8745V8.37616C11.0506 7.46073 11.1191 6.37739 10.5969 5.58655C10.138 4.87696 9.26243 4.58445 8.49232 4.58445C7.06287 4.58445 5.78638 5.33738 5.47517 6.89739C5.41187 7.24407 5.16396 7.58532 4.82638 7.60157L1.18682 7.20073C0.88088 7.13031 0.543297 6.87573 0.627692 6.39364C1.46638 1.86526 5.4488 0.500244 9.01452 0.500244C10.8396 0.500244 13.2238 0.998584 14.6638 2.41776C16.4888 4.16736 16.3147 6.50197 16.3147 9.04242V15.0441C16.3147 16.8479 17.0427 17.6388 17.7284 18.6138C17.971 18.9604 18.0238 19.3775 17.7178 19.6375C16.953 20.2929 15.5921 21.5117 14.8431 22.1942L14.8326 22.1834" fill="black"/>
</g>
<defs>
<clipPath id="clip0_1_12339">
<rect width="121.176" height="37.5" fill="white" transform="translate(0 0.5)"/>
</clipPath>
</defs>
</svg>
