<svg width="17" height="17" viewBox="0 0 17 17" fill="none" xmlns="http://www.w3.org/2000/svg">
<path fill-rule="evenodd" clip-rule="evenodd" d="M15.3371 11.7459C14.9396 11.5457 12.9852 10.5781 12.6208 10.4445C12.2564 10.311 11.9914 10.2442 11.7264 10.6447C11.4615 11.0451 10.6996 11.9462 10.4677 12.2133C10.2359 12.4801 10.0039 12.5137 9.60647 12.3133C9.20899 12.113 7.92812 11.6907 6.40978 10.3278C5.22798 9.26699 4.43022 7.95707 4.19825 7.55648C3.96641 7.15608 4.17359 6.9396 4.37262 6.74009C4.55144 6.56078 4.77017 6.27288 4.96895 6.03924C5.16766 5.80574 5.23392 5.63872 5.36644 5.37194C5.49895 5.1049 5.43276 4.87126 5.33331 4.6711C5.23392 4.47087 4.43894 2.50183 4.10771 1.70071C3.78495 0.920778 3.45727 1.02645 3.21322 1.01404C2.9817 1.0024 2.71635 1 2.45138 1C2.18641 1 1.75566 1.10015 1.39137 1.50054C1.02701 1.90107 0 2.86895 0 4.83779C0 6.80689 1.42443 8.70912 1.62321 8.97603C1.82192 9.24314 4.42629 13.2836 8.41395 15.0164C9.36236 15.4287 10.1028 15.6748 10.6801 15.8591C11.6324 16.1636 12.499 16.1206 13.1839 16.0176C13.9477 15.9028 15.5358 15.0499 15.8671 14.1156C16.1984 13.181 16.1984 12.38 16.0989 12.2132C15.9996 12.0464 15.7346 11.9462 15.3371 11.7459Z" fill="#3DB5D8"/>
</svg>
