<svg width="26" height="26" viewBox="0 0 26 26" fill="none" xmlns="http://www.w3.org/2000/svg">
<path d="M7.58325 19.5001C6.39158 19.5001 5.42742 20.4751 5.42742 21.6667C5.42742 22.8584 6.39158 23.8334 7.58325 23.8334C8.77492 23.8334 9.74992 22.8584 9.74992 21.6667C9.74992 20.4751 8.77492 19.5001 7.58325 19.5001ZM1.08325 2.16675V4.33341H3.24992L7.14992 12.5559L5.68742 15.2101C5.51408 15.5134 5.41658 15.8709 5.41658 16.2501C5.41658 17.4417 6.39158 18.4167 7.58325 18.4167H20.5833V16.2501H8.03825C7.88658 16.2501 7.76742 16.1309 7.76742 15.9792L7.79992 15.8492L8.77492 14.0834H16.8458C17.6583 14.0834 18.3732 13.6392 18.7416 12.9676L22.6199 5.93675C22.7066 5.78508 22.7499 5.60091 22.7499 5.41675C22.7499 4.82091 22.2624 4.33341 21.6666 4.33341H5.64408L4.62575 2.16675H1.08325ZM18.4166 19.5001C17.2249 19.5001 16.2608 20.4751 16.2608 21.6667C16.2608 22.8584 17.2249 23.8334 18.4166 23.8334C19.6083 23.8334 20.5833 22.8584 20.5833 21.6667C20.5833 20.4751 19.6083 19.5001 18.4166 19.5001Z" fill="white"/>
</svg>
