<svg width="455" height="535" viewBox="0 0 455 535" fill="none" xmlns="http://www.w3.org/2000/svg">
<path d="M432.668 18.4082H179.619V193.62H432.668V18.4082Z" fill="#D0DBF2" stroke="black" stroke-width="2.75" stroke-miterlimit="22.93"/>
<path fill-rule="evenodd" clip-rule="evenodd" d="M301.249 43.4934C297.028 54.1022 281.689 73.4365 265.493 93.8628C250.084 113.312 244.965 120.186 246.486 119.66C251.37 117.984 323.797 40.9473 346.42 53.5761C357.197 59.5922 358.797 72.8928 345.306 97.0675C344.745 98.0753 343.538 99.8744 341.712 102.58L330.242 119.629C333.915 117.419 337.314 115.208 340.479 113.166C348.829 107.773 355.813 103.26 363.465 100.789L372.712 129.596C369.017 130.79 363.469 134.375 356.834 138.663C344.63 146.548 329.366 156.41 307.959 163.071C295.892 166.824 288.757 162.554 285.522 152.162C282.799 143.414 292.121 124.849 301.744 108.808C290.693 119.691 280.085 130.184 276.942 133.164C276.017 134.105 275.016 134.969 273.949 135.745L273.772 135.803C229.194 165.118 207.684 168.301 199.843 156.379C189.627 140.793 216.644 106.708 241.787 75.0146C256.626 56.3034 270.669 38.5957 273.171 32.3499L301.249 43.4934Z" fill="#0000FF"/>
<path d="M432.668 2H179.619V18.4082H432.668V2Z" fill="white" stroke="black" stroke-width="2.75" stroke-miterlimit="22.93"/>
<path fill-rule="evenodd" clip-rule="evenodd" d="M190.511 6.80933C191.252 6.80933 191.977 7.02917 192.594 7.44105C193.21 7.85293 193.69 8.43836 193.974 9.12329C194.258 9.80823 194.332 10.5619 194.188 11.289C194.043 12.0161 193.686 12.6841 193.162 13.2083C192.637 13.7325 191.97 14.0895 191.242 14.2341C190.515 14.3788 189.762 14.3045 189.077 14.0208C188.392 13.7371 187.806 13.2567 187.394 12.6403C186.983 12.0238 186.763 11.2991 186.763 10.5577C186.763 9.5636 187.158 8.61018 187.861 7.90721C188.564 7.20425 189.517 6.80933 190.511 6.80933V6.80933Z" stroke="black" stroke-width="2.75" stroke-miterlimit="22.93"/>
<path fill-rule="evenodd" clip-rule="evenodd" d="M203.197 6.80933C203.939 6.80933 204.663 7.02917 205.28 7.44105C205.896 7.85293 206.377 8.43836 206.66 9.12329C206.944 9.80823 207.018 10.5619 206.874 11.289C206.729 12.0161 206.372 12.6841 205.848 13.2083C205.323 13.7325 204.656 14.0895 203.928 14.2341C203.201 14.3788 202.448 14.3045 201.763 14.0208C201.078 13.7371 200.492 13.2567 200.08 12.6403C199.669 12.0238 199.449 11.2991 199.449 10.5577C199.449 9.5636 199.844 8.61018 200.547 7.90721C201.25 7.20425 202.203 6.80933 203.197 6.80933V6.80933Z" stroke="black" stroke-width="2.75" stroke-miterlimit="22.93"/>
<path fill-rule="evenodd" clip-rule="evenodd" d="M215.884 6.80933C216.625 6.80933 217.35 7.02917 217.966 7.44105C218.583 7.85293 219.063 8.43836 219.347 9.12329C219.63 9.80823 219.705 10.5619 219.56 11.289C219.415 12.0161 219.058 12.6841 218.534 13.2083C218.01 13.7325 217.342 14.0895 216.615 14.2341C215.888 14.3788 215.134 14.3045 214.449 14.0208C213.764 13.7371 213.179 13.2567 212.767 12.6403C212.355 12.0238 212.135 11.2991 212.135 10.5577C212.135 9.5636 212.53 8.61018 213.233 7.90721C213.936 7.20425 214.89 6.80933 215.884 6.80933V6.80933Z" stroke="black" stroke-width="2.75" stroke-miterlimit="22.93"/>
<path d="M275.195 284.634L322.917 530.973" stroke="#575757" stroke-width="2.75" stroke-miterlimit="22.93"/>
<path d="M296.187 391.013H149.937" stroke="#575757" stroke-width="2.75" stroke-miterlimit="22.93"/>
<path d="M312.025 530.973H332.243" stroke="#575757" stroke-width="2.75" stroke-miterlimit="22.93"/>
<path fill-rule="evenodd" clip-rule="evenodd" d="M274.939 157.577H367.186C370.523 157.577 372.654 160.309 371.925 163.65L357.338 230.255H252.935L267.522 163.65C268.26 160.309 271.593 157.577 274.939 157.577Z" fill="#ADB8CD" stroke="black" stroke-width="2.75" stroke-miterlimit="22.93"/>
<path fill-rule="evenodd" clip-rule="evenodd" d="M209.731 279.516H306.535C308.617 279.516 312.105 277.814 314.288 275.732L357.837 234.181L357.311 230.247L253.434 234.181L209.885 275.732C207.75 277.814 207.649 279.516 209.731 279.516Z" fill="#B3B3B3" stroke="black" stroke-width="2.75" stroke-miterlimit="22.93"/>
<path fill-rule="evenodd" clip-rule="evenodd" d="M208.59 275.745H305.395C307.476 275.745 310.964 274.043 313.148 271.961L356.714 230.428H252.324L208.776 271.979C206.592 274.043 206.508 275.745 208.59 275.745Z" fill="#B3B3B3" stroke="black" stroke-width="2.75" stroke-miterlimit="22.93"/>
<path fill-rule="evenodd" clip-rule="evenodd" d="M176.64 218.087L217.709 217.362C219.946 220.217 238.926 236.254 238.926 236.254C229.856 254.779 193.349 268.734 173.687 269.702C109.619 272.863 148.209 210.143 176.64 218.087Z" fill="white" stroke="black" stroke-width="2.75" stroke-miterlimit="22.93"/>
<path fill-rule="evenodd" clip-rule="evenodd" d="M234.148 242.911L217.709 217.361C217.749 216.544 221.855 211.898 226.284 207.173C229.586 203.636 235.196 200.268 239.298 202.12C240.664 202.739 239.952 203.521 241.137 203.446C254.362 202.695 253.04 210.236 253.04 210.236C253.416 210.377 253.783 210.532 254.146 210.704C256.219 211.69 257.969 213.206 258.729 215.39C259.463 217.49 259.75 220.646 256.833 223.678C256.807 224.31 258.601 225.269 258.69 227.979C258.782 230.569 257.231 233.809 255.03 235.277C252.567 236.917 249.349 236.488 247.833 233.314C244.487 233.372 237.587 239.414 234.926 242.035L234.148 242.911Z" fill="#C96C2F" stroke="black" stroke-width="2.75" stroke-miterlimit="22.93"/>
<path d="M257.324 224.536C256.405 221.353 249.009 217.636 244.129 220.403" stroke="black" stroke-width="2.75" stroke-miterlimit="22.93"/>
<path d="M254.831 211.009C252.481 209.872 249.898 209.301 247.288 209.342C244.679 209.383 242.115 210.034 239.802 211.244" stroke="black" stroke-width="2.75" stroke-miterlimit="22.93"/>
<path d="M242.308 203.411C238.975 203.747 234.953 204.936 234.148 205.657" stroke="black" stroke-width="2.75" stroke-miterlimit="22.93"/>
<path d="M246.729 233.522C247.396 233.35 249.474 232.682 250.707 232.868" stroke="black" stroke-width="2.75" stroke-miterlimit="22.93"/>
<path fill-rule="evenodd" clip-rule="evenodd" d="M119.645 448.38L94.0779 490.815L117.333 503.695C117.368 503.656 122.014 496.897 126.744 501.264C128.888 503.249 127.535 506.431 126.147 508.673L160.011 527.441L197.928 525.514C197.159 503.258 172.238 499.257 172.238 499.257C162.394 487.981 152.952 478.15 157.854 469.54L119.645 448.38Z" fill="black" stroke="black" stroke-width="2.75" stroke-miterlimit="22.93"/>
<path fill-rule="evenodd" clip-rule="evenodd" d="M198.065 524.568L160.732 524.374L127.022 505.707L124.193 510.808L160.161 530.726L198.278 530.779L198.065 524.568Z" fill="#6699FF" stroke="black" stroke-width="2.75" stroke-miterlimit="22.93"/>
<path d="M95.0362 488.036L92.2092 493.14L117.243 507.005L120.07 501.901L95.0362 488.036Z" fill="#6699FF" stroke="black" stroke-width="2.75" stroke-miterlimit="22.93"/>
<path d="M185.79 504.659C179.672 507.232 174.258 514.225 173.077 524.639" stroke="black" stroke-width="2.75" stroke-miterlimit="22.93"/>
<path fill-rule="evenodd" clip-rule="evenodd" d="M199.794 325.27C153.535 325.27 97.6846 326.547 51.4129 326.547C43.6376 380.789 107.949 389.453 115.017 390.412L149.468 389.643L115.41 454.833L165.125 476.197L221.758 387.044C228.039 360.646 233.423 352.729 209.881 342.399L199.794 325.27Z" fill="#E0DE72" stroke="black" stroke-width="2.75" stroke-miterlimit="22.93"/>
<path d="M73.3422 391.672L40.6055 530.977" stroke="#575757" stroke-width="2.75" stroke-miterlimit="22.93"/>
<path d="M128.675 393.962L155.206 530.907" stroke="#575757" stroke-width="2.75" stroke-miterlimit="22.93"/>
<path d="M35.5398 530.907H46.7806" stroke="#575757" stroke-width="2.75" stroke-miterlimit="22.93"/>
<path d="M149.15 530.907H160.391" stroke="#575757" stroke-width="2.75" stroke-miterlimit="22.93"/>
<path d="M197.893 393.962L224.423 530.907" stroke="#575757" stroke-width="2.75" stroke-miterlimit="22.93"/>
<path d="M218.368 530.907H229.608" stroke="#575757" stroke-width="2.75" stroke-miterlimit="22.93"/>
<path fill-rule="evenodd" clip-rule="evenodd" d="M341.553 236.325H255.096L230.077 259.474H316.534L341.553 236.325Z" fill="black" stroke="black" stroke-width="2.75" stroke-miterlimit="22.93"/>
<path fill-rule="evenodd" clip-rule="evenodd" d="M187.828 478.354L178.072 527.861H204.656C204.656 527.813 207.706 516.576 213.899 520.347C216.206 521.744 215.313 525.333 214.783 527.963H284.756C287.13 493.962 227.893 499.284 231.5 478.358L187.828 478.354Z" fill="black" stroke="black" stroke-width="2.75" stroke-miterlimit="22.93"/>
<path fill-rule="evenodd" clip-rule="evenodd" d="M286.189 524.926H214.571L213.634 530.761H285.252L286.189 524.926Z" fill="#6699FF" stroke="black" stroke-width="2.75" stroke-miterlimit="22.93"/>
<path fill-rule="evenodd" clip-rule="evenodd" d="M206.636 524.926L178.532 524.917L177.445 530.748L205.699 530.761L206.636 524.926Z" fill="#6699FF" stroke="black" stroke-width="2.75" stroke-miterlimit="22.93"/>
<path d="M272.075 505.176C267.128 510.392 263.583 517.469 260.754 524.926" stroke="black" stroke-width="2.75" stroke-miterlimit="22.93"/>
<path fill-rule="evenodd" clip-rule="evenodd" d="M199.794 313.087C153.535 313.087 98.8826 314.36 52.6286 314.36C52.3943 315.868 50.9886 329.504 50.8295 330.937C43.0321 401.18 119.021 389.47 125.975 390.412L194.874 388.873L178.457 479.242H231.5L255.268 382.296C261.678 359.116 267.53 331.211 235.156 322.047L207.145 314.091L199.794 313.087Z" fill="#E0DE72" stroke="black" stroke-width="2.75" stroke-miterlimit="22.93"/>
<path fill-rule="evenodd" clip-rule="evenodd" d="M119.941 104.449C128.039 103.234 138.475 104.334 146.573 103.123C146.573 117.06 146.746 132.841 147.758 146.831C139.063 146.831 124.883 147.273 116.188 147.273C116.785 134.556 119.344 117.153 119.941 104.449Z" fill="#C96C2F" stroke="black" stroke-width="2.75" stroke-miterlimit="22.93"/>
<path fill-rule="evenodd" clip-rule="evenodd" d="M207.242 313.653C207.242 313.653 55.9306 314.241 51.4219 314.409L62.8307 235.573C67.1537 206.399 85.4361 114.775 115.671 127.461C115.671 127.461 115.578 131.952 116.113 133.287C124.286 141.849 145.932 135.347 145.932 135.347C150.353 127.766 160.988 124.239 168.997 131.572C183.01 144.391 202.548 211.306 212.316 227.435H254.442C256.679 230.291 274.506 247.618 274.506 247.618C265.435 266.144 228.344 281.359 209.266 279.325L207.242 313.653Z" fill="white" stroke="black" stroke-width="2.75" stroke-miterlimit="22.93"/>
<path fill-rule="evenodd" clip-rule="evenodd" d="M158.243 97.7039C159.737 97.2619 163.865 94.3268 160.944 89.7739C160.037 88.3638 158.031 85.6807 156.965 82.1975C151.851 63.6322 132.419 58.7434 122.575 67.5354C114.283 74.9482 110.336 97.6863 123.902 112.096C134.63 123.492 160.263 121.543 158.243 97.7039Z" fill="#C96C2F"/>
<path d="M128.326 115.606C140.376 122.71 160.02 118.7 158.225 97.7039C159.719 97.2619 163.848 94.3268 160.926 89.7739C160.02 88.3638 158.013 85.6807 156.948 82.1975C151.833 63.6322 132.402 58.7434 122.558 67.5354C115.587 73.7636 111.688 90.8215 118.677 104.666C119.061 105.422 120.179 107.76 121.165 108.786" stroke="black" stroke-width="2.75" stroke-miterlimit="22.93"/>
<path d="M209.258 279.312C170.801 278.317 158.981 241.695 157.381 224.292" stroke="black" stroke-width="2.75" stroke-miterlimit="22.93"/>
<path d="M147.926 133.398C146.392 135.458 140.814 140.749 140.204 146.99" stroke="black" stroke-width="2.75" stroke-miterlimit="22.93"/>
<path fill-rule="evenodd" clip-rule="evenodd" d="M270.872 252.971L254.433 227.422C254.473 226.6 257.642 219.023 262.071 214.289C265.373 210.753 270.395 208.985 274.497 210.85C275.863 211.469 276.813 211.955 277.993 211.84C291.422 210.55 289.765 220.305 289.765 220.305C290.14 220.447 290.507 220.601 290.87 220.774C292.943 221.76 294.693 223.276 295.453 225.459C296.187 227.559 296.475 230.711 293.557 233.747C293.531 234.38 295.325 235.339 295.414 238.048C295.507 240.639 293.955 243.879 291.754 245.346C289.292 246.986 286.074 246.553 284.557 243.379C281.216 243.437 274.311 249.484 271.65 252.105L270.872 252.971Z" fill="#C96C2F" stroke="black" stroke-width="2.75" stroke-miterlimit="22.93"/>
<path d="M294.048 234.596C292.279 232.231 285.733 227.696 280.853 230.463" stroke="black" stroke-width="2.75" stroke-miterlimit="22.93"/>
<path d="M291.555 221.07C288.007 219.363 283.981 218.926 280.15 219.832" stroke="black" stroke-width="2.75" stroke-miterlimit="22.93"/>
<path d="M278.568 211.792C275.235 212.132 271.213 213.317 270.408 214.037" stroke="black" stroke-width="2.75" stroke-miterlimit="22.93"/>
<path d="M283.452 243.57C284.12 243.397 286.197 242.73 287.43 242.915" stroke="black" stroke-width="2.75" stroke-miterlimit="22.93"/>
<path d="M131.279 81.9585C127.172 78.798 122.942 82.1265 123.229 86.6706C123.45 90.1273 127.844 93.7696 132.397 90.7063" stroke="black" stroke-width="2.75" stroke-miterlimit="22.93"/>
<path d="M127.911 83.6387C129.785 84.1779 130.908 87.0423 129.029 89.164" stroke="black" stroke-width="2.75" stroke-miterlimit="22.93"/>
<path d="M151.024 110.063C149.124 109.466 147.793 108.834 146.909 107.632" stroke="black" stroke-width="2.75" stroke-miterlimit="22.93"/>
<path d="M153.434 84.1689C153.434 85.2431 153.699 86.3349 153.699 87.2632" stroke="black" stroke-width="2.75" stroke-miterlimit="22.93"/>
<path d="M211.658 226.189C214.173 230.388 214.182 233.31 214.182 237.987" stroke="black" stroke-width="2.75" stroke-miterlimit="22.93"/>
<path d="M162.597 222.688C159.883 223.846 155.06 225.897 152.16 225.897" stroke="black" stroke-width="2.75" stroke-miterlimit="22.93"/>
<path d="M187.351 388.874C193.539 388.675 205.978 387.251 210.19 383.971" stroke="black" stroke-width="2.75" stroke-miterlimit="22.93"/>
<path fill-rule="evenodd" clip-rule="evenodd" d="M117.854 121.127C117.412 122.895 136.897 128.642 146.71 121.26L151.007 130.03C150.379 130.821 149.712 131.616 148.973 132.381C145.747 135.732 141.123 138.57 131.955 138.468C125.462 138.406 118.548 137.19 115.715 134.154C114.831 133.208 113.315 133.305 117.213 122.038C117.35 121.631 117.916 120.866 117.854 121.127Z" fill="white" stroke="black" stroke-width="2.75" stroke-miterlimit="22.93"/>
<path d="M169.294 313.91L167.141 255.929" stroke="black" stroke-width="2.75" stroke-miterlimit="22.93"/>
<path fill-rule="evenodd" clip-rule="evenodd" d="M13.9819 243.596H101.062C107.741 243.596 114.199 249.059 115.423 255.734L123.915 302.116C125.135 308.795 120.67 314.259 113.996 314.259H26.9157C20.241 314.259 13.7741 308.795 12.5541 302.116L4.06271 255.734C2.84271 249.059 7.30721 243.596 13.9819 243.596Z" fill="black" stroke="black" stroke-width="2.75" stroke-miterlimit="22.93"/>
<path fill-rule="evenodd" clip-rule="evenodd" d="M12.1077 243.596H99.1876C105.867 243.596 112.329 249.059 113.549 255.734L122.041 302.116C123.261 308.795 118.8 314.259 112.121 314.259H25.0415C18.3668 314.259 11.9043 308.795 10.6799 302.116L2.20619 255.734C0.968501 249.059 5.433 243.596 12.1077 243.596Z" fill="#F7CFB9" stroke="black" stroke-width="2.75" stroke-miterlimit="22.93"/>
<path d="M193.893 389.378H43.019V393.957H193.893V389.378Z" fill="#F7CFB9" stroke="black" stroke-width="2.75" stroke-miterlimit="22.93"/>
<path d="M193.892 389.378H122.558V393.957H193.892V389.378Z" fill="black" stroke="black" stroke-width="2.75" stroke-miterlimit="22.93"/>
<path d="M55.1082 389.378L29.1433 260.402" stroke="#575757" stroke-width="2.75" stroke-miterlimit="22.93"/>
<path d="M110.38 389.378L84.4148 260.402" stroke="#575757" stroke-width="2.75" stroke-miterlimit="22.93"/>
<path d="M182.802 497.458L175.57 534.001" stroke="white" stroke-width="2.75" stroke-miterlimit="22.93"/>
<path d="M178.333 321.486C186.506 319.183 202.963 313.724 207.242 313.724" stroke="black" stroke-width="2.75" stroke-miterlimit="22.93"/>
<path fill-rule="evenodd" clip-rule="evenodd" d="M150.043 70.046C150.021 54.827 129.674 49.2706 117.841 55.5254C106.256 61.6563 99.2761 77.123 108.793 90.4944C112.152 95.2241 115.773 96.2408 115.773 96.2408C120.635 96.17 121.47 90.543 122.814 85.7249C123.117 84.5732 123.656 83.497 124.397 82.5643C127.283 79.0546 132.212 80.5664 133.79 86.357C134.634 89.4512 138.36 89.4512 138.449 84.9425C138.515 81.2117 138.409 70.824 138.763 70.5235C139.116 70.2229 150.043 70.046 150.043 70.046Z" fill="#E05A00" stroke="black" stroke-width="2.75" stroke-miterlimit="22.93"/>
<path d="M437.23 279.48H209.222V284.665H437.23V279.48Z" fill="#F7CFB9" stroke="black" stroke-width="2.75" stroke-miterlimit="22.93"/>
<path d="M437.23 279.48H264.697V284.665H437.23V279.48Z" fill="black" stroke="black" stroke-width="2.75" stroke-miterlimit="22.93"/>
<path d="M296.461 285.275L238.719 530.973" stroke="#575757" stroke-width="2.75" stroke-miterlimit="22.93"/>
<path d="M397.143 284.51L444.864 530.845" stroke="#575757" stroke-width="2.75" stroke-miterlimit="22.93"/>
<path d="M418.134 390.889H271.884" stroke="#575757" stroke-width="2.75" stroke-miterlimit="22.93"/>
<path d="M229.608 530.845H249.831" stroke="#575757" stroke-width="2.75" stroke-miterlimit="22.93"/>
<path d="M433.972 530.845H454.191" stroke="#575757" stroke-width="2.75" stroke-miterlimit="22.93"/>
<path d="M385.442 84.328L379.532 76.5217" stroke="black" stroke-width="2.75" stroke-miterlimit="22.93"/>
<path d="M380.376 90.4504L373.622 87.2854" stroke="black" stroke-width="2.75" stroke-miterlimit="22.93"/>
<path d="M378.688 98.8931L371.509 99.3174" stroke="black" stroke-width="2.75" stroke-miterlimit="22.93"/>
<path d="M320.198 276.209L355.525 242.482C358.655 240.095 363.119 241.7 362.925 247.039C362.73 252.379 362.708 263.448 362.744 267.846C362.744 268.288 362.744 271.157 362.744 271.453C362.832 277.257 370.294 277.553 370.258 271.192" stroke="black" stroke-width="2.75" stroke-miterlimit="22.93"/>
<path d="M277.609 167.695L274.532 182.949" stroke="white" stroke-width="2.75" stroke-miterlimit="22.93"/>
</svg>
