<svg width="126" height="44" viewBox="0 0 126 44" fill="none" xmlns="http://www.w3.org/2000/svg">
<g clip-path="url(#clip0_1_12350)" filter="url(#filter0_d_1_12350)">
<path d="M91.6631 34.7759L101.474 23.9518L91.6631 13.1262H102.015L106.874 18.3846L111.554 13.1262H121.544L111.78 23.9071L121.678 34.7759H111.284L106.469 29.4744L101.699 34.7759H91.6631Z" fill="#FF6600"/>
<path d="M91.6631 8.27316H80.5511V13.1262H91.6631V20.4402H80.5511V27.1536H91.6631V34.776H72.3838V0.671875H91.6631V8.27316Z" fill="#FF6600"/>
<path d="M64.251 0.671875V14.6289H64.1615C62.3609 12.5969 60.1113 11.8907 57.5011 11.8907C52.1543 11.8907 48.1267 15.4596 46.7129 20.1781C45.1006 14.979 40.9425 11.7933 34.7768 11.7933C29.7696 11.7933 25.8157 14.0001 23.7522 17.5961V13.1267H13.4024V8.27416H24.697V0.671875H4.17627V34.7765H13.4024V20.4402H22.5983C22.3241 21.4934 22.1778 22.6209 22.1778 23.8107C22.1778 30.9248 27.7129 35.9165 34.7768 35.9165C40.7169 35.9165 44.6315 33.1783 46.7021 28.1862H38.7957C37.7262 29.6858 36.9149 30.1313 34.7768 30.1313C32.2975 30.1313 30.1599 28.0074 30.1599 25.4897H46.2591C46.9574 31.1403 51.4402 36.0135 57.5921 36.0135C60.2459 36.0135 62.6755 34.7318 64.1615 32.5676H64.251V34.7754H72.384V0.671875H64.251ZM30.4167 20.5422C30.9297 18.3761 32.6407 16.9603 34.7768 16.9603C37.1282 16.9603 38.7522 18.3324 39.1794 20.5422C39.3594 20.5422 30.4167 20.5422 30.4167 20.5422ZM59.3154 29.5834C56.3175 29.5834 54.4545 26.8407 54.4545 23.977C54.4545 20.9158 56.075 17.9723 59.3154 17.9723C62.6755 17.9723 64.0141 20.9158 64.0141 23.977C64.0136 26.8799 62.5952 29.5834 59.3154 29.5834Z" fill="#652C8F"/>
</g>
<defs>
<filter id="filter0_d_1_12350" x="0.17627" y="0.671875" width="125.647" height="43.1562" filterUnits="userSpaceOnUse" color-interpolation-filters="sRGB">
<feFlood flood-opacity="0" result="BackgroundImageFix"/>
<feColorMatrix in="SourceAlpha" type="matrix" values="0 0 0 0 0 0 0 0 0 0 0 0 0 0 0 0 0 0 127 0" result="hardAlpha"/>
<feOffset dy="4"/>
<feGaussianBlur stdDeviation="2"/>
<feComposite in2="hardAlpha" operator="out"/>
<feColorMatrix type="matrix" values="0 0 0 0 0 0 0 0 0 0 0 0 0 0 0 0 0 0 0.25 0"/>
<feBlend mode="normal" in2="BackgroundImageFix" result="effect1_dropShadow_1_12350"/>
<feBlend mode="normal" in="SourceGraphic" in2="effect1_dropShadow_1_12350" result="shape"/>
</filter>
<clipPath id="clip0_1_12350">
<rect width="117.647" height="35.1562" fill="white" transform="translate(4.17627 0.671875)"/>
</clipPath>
</defs>
</svg>
