<svg width="113" height="38" viewBox="0 0 113 38" fill="none" xmlns="http://www.w3.org/2000/svg">
<g clip-path="url(#clip0_1_12366)">
<path d="M48.2675 19.7309C48.2675 24.9361 44.1626 28.7717 39.1249 28.7717C34.0873 28.7717 29.9824 24.9361 29.9824 19.7309C29.9824 14.4891 34.0873 10.6902 39.1249 10.6902C44.1626 10.6902 48.2675 14.4891 48.2675 19.7309ZM44.2653 19.7309C44.2653 16.4782 41.8862 14.2527 39.1249 14.2527C36.3637 14.2527 33.9846 16.4782 33.9846 19.7309C33.9846 22.9511 36.3637 25.2092 39.1249 25.2092C41.8862 25.2092 44.2653 22.947 44.2653 19.7309Z" fill="#EA4335"/>
<path d="M67.9906 19.7309C67.9906 24.9361 63.8857 28.7717 58.8481 28.7717C53.8105 28.7717 49.7056 24.9361 49.7056 19.7309C49.7056 14.4932 53.8105 10.6902 58.8481 10.6902C63.8857 10.6902 67.9906 14.4891 67.9906 19.7309ZM63.9884 19.7309C63.9884 16.4782 61.6093 14.2527 58.8481 14.2527C56.0868 14.2527 53.7077 16.4782 53.7077 19.7309C53.7077 22.9511 56.0868 25.2092 58.8481 25.2092C61.6093 25.2092 63.9884 22.947 63.9884 19.7309Z" fill="#FBBC05"/>
<path d="M86.8924 11.2364V27.4674C86.8924 34.144 82.9231 36.8709 78.2306 36.8709C73.8134 36.8709 71.1549 33.9402 70.1523 31.5434L73.6367 30.1046C74.2572 31.5761 75.7775 33.3125 78.2265 33.3125C81.2302 33.3125 83.0915 31.4742 83.0915 28.0136V26.7133H82.9518C82.0561 27.8098 80.3303 28.7676 78.1525 28.7676C73.5956 28.7676 69.4209 24.8301 69.4209 19.7636C69.4209 14.6603 73.5956 10.6902 78.1525 10.6902C80.3262 10.6902 82.052 11.6481 82.9518 12.7119H83.0915V11.2405H86.8924V11.2364ZM83.3751 19.7636C83.3751 16.5801 81.2343 14.2527 78.51 14.2527C75.7488 14.2527 73.4354 16.5801 73.4354 19.7636C73.4354 22.9144 75.7488 25.2092 78.51 25.2092C81.2343 25.2092 83.3751 22.9144 83.3751 19.7636Z" fill="#4285F4"/>
<path d="M93.1584 1.7229V28.2175H89.2549V1.7229H93.1584Z" fill="#34A853"/>
<path d="M108.37 22.7064L111.477 24.7608C110.474 26.2322 108.058 28.7676 103.883 28.7676C98.7059 28.7676 94.8394 24.7974 94.8394 19.7268C94.8394 14.3504 98.7388 10.686 103.435 10.686C108.165 10.686 110.478 14.4197 111.234 16.4374L111.649 17.4646L99.4661 22.47C100.399 24.2839 101.849 25.2091 103.883 25.2091C105.921 25.2091 107.335 24.2146 108.37 22.7064ZM98.8086 19.4537L106.953 16.0991C106.505 14.97 105.157 14.1833 103.571 14.1833C101.537 14.1833 98.7059 15.9646 98.8086 19.4537Z" fill="#EA4335"/>
<path d="M15.2067 17.3791V13.5436H28.2364C28.3637 14.212 28.4295 15.0028 28.4295 15.8588C28.4295 18.7365 27.6364 22.2949 25.0807 24.8302C22.5947 27.3982 19.4185 28.7677 15.2108 28.7677C7.41196 28.7677 0.854004 22.4661 0.854004 14.7297C0.854004 6.99328 7.41196 0.69165 15.2108 0.69165C19.5253 0.69165 22.5988 2.371 24.9081 4.55986L22.1797 7.26638C20.5238 5.72562 18.2803 4.52725 15.2067 4.52725C9.51166 4.52725 5.05751 9.08024 5.05751 14.7297C5.05751 20.3791 9.51166 24.9321 15.2067 24.9321C18.9007 24.9321 21.0045 23.4607 22.3523 22.1237C23.4453 21.0395 24.1643 19.4906 24.4479 17.3751L15.2067 17.3791Z" fill="#4285F4"/>
</g>
<defs>
<clipPath id="clip0_1_12366">
<rect width="111.765" height="37.5" fill="white" transform="translate(0.706055 0.5)"/>
</clipPath>
</defs>
</svg>
