<svg width="260" height="271" viewBox="0 0 260 271" fill="none" xmlns="http://www.w3.org/2000/svg">
<path d="M5.60728 212.266C8.7041 212.266 11.2146 209.755 11.2146 206.658C11.2146 203.562 8.7041 201.051 5.60728 201.051C2.51046 201.051 0 203.562 0 206.658C0 209.755 2.51046 212.266 5.60728 212.266Z" fill="#63A4E5"/>
<path d="M249.159 122.948C253.126 122.948 256.342 119.732 256.342 115.765C256.342 111.797 253.126 108.581 249.159 108.581C245.192 108.581 241.976 111.797 241.976 115.765C241.976 119.732 245.192 122.948 249.159 122.948Z" fill="#63A4E5"/>
<path d="M117.298 237.749C180.18 237.749 231.157 186.773 231.157 123.891C231.157 61.0082 180.18 10.032 117.298 10.032C54.4157 10.032 3.43945 61.0082 3.43945 123.891C3.43945 186.773 54.4157 237.749 117.298 237.749Z" fill="#ECF3FE"/>
<path opacity="0.18" d="M226.324 226.706C226.324 226.697 226.325 226.687 226.325 226.679C226.323 226.669 226.324 226.651 226.322 226.639C226.321 226.56 226.319 226.474 226.313 226.394C226.306 226.31 226.304 226.225 226.29 226.142C226.288 226.108 226.287 226.074 226.284 226.034C226.279 226.013 226.279 225.989 226.275 225.968C226.268 225.911 226.261 225.856 226.25 225.807C226.243 225.751 226.236 225.696 226.224 225.641C226.203 225.519 226.182 225.404 226.157 225.289L226.091 224.995C226.091 224.995 226.091 224.995 226.091 224.994L225.872 224.014L205.125 131.086C205.099 130.972 205.067 130.853 205.036 130.739C205.018 130.657 204.993 130.572 204.963 130.492C204.936 130.396 204.902 130.3 204.864 130.205C204.835 130.125 204.806 130.045 204.771 129.968C204.742 129.888 204.708 129.816 204.673 129.737C204.628 129.638 204.584 129.545 204.534 129.448C204.433 129.252 204.327 129.059 204.205 128.874C204.204 128.868 204.197 128.863 204.196 128.858C204.118 128.743 204.042 128.629 203.96 128.521C203.669 128.116 203.335 127.749 202.965 127.426C202.878 127.347 202.787 127.271 202.691 127.195C202.481 127.025 202.263 126.872 202.037 126.734C201.964 126.688 201.89 126.641 201.812 126.6C201.713 126.542 201.615 126.484 201.506 126.434C201.492 126.426 201.473 126.418 201.454 126.411L201.045 126.222C201.045 126.222 201.044 126.216 201.04 126.223L190.57 121.425L175.731 54.9646C174.243 48.3014 167.636 44.1061 160.973 45.5932L28.8076 75.1023C22.1444 76.5895 17.9491 83.1976 19.4363 89.8607L34.2745 156.318L26.834 165.119L26.5442 165.464C26.5307 165.478 26.5161 165.493 26.5083 165.506C25.7557 166.471 25.2637 167.629 25.1031 168.863C25.002 169.641 25.0334 170.447 25.2132 171.256L46.127 264.924L46.1798 265.162L46.245 265.458C46.2843 265.632 46.327 265.8 46.382 265.966C46.3932 266.005 46.4067 266.043 46.418 266.081C46.4269 266.11 46.4359 266.14 46.4449 266.168C46.4505 266.185 46.455 266.2 46.4606 266.217C46.4606 266.218 46.4618 266.218 46.4618 266.219C46.4674 266.236 46.4752 266.251 46.4809 266.267C46.5146 266.367 46.5527 266.469 46.5898 266.567C46.5988 266.581 46.6044 266.604 46.6123 266.618C46.6291 266.656 46.6471 266.693 46.6639 266.73C46.6819 266.771 46.6999 266.81 46.7179 266.85C46.7268 266.871 46.7358 266.891 46.7459 266.912C46.7538 266.93 46.7639 266.95 46.7718 266.968C46.8223 267.072 46.8762 267.176 46.9313 267.281C46.9436 267.302 46.956 267.321 46.9683 267.343C46.9931 267.385 47.0178 267.428 47.0436 267.471C47.0706 267.517 47.0964 267.566 47.1256 267.61C47.1941 267.716 47.2649 267.826 47.3334 267.925C47.3356 267.928 47.339 267.931 47.3424 267.936C47.3918 268.005 47.4457 268.069 47.4974 268.137C47.5199 268.166 47.539 268.2 47.5614 268.228C47.6266 268.317 47.7041 268.402 47.7748 268.49C47.7861 268.502 47.7984 268.514 47.8097 268.527C47.8254 268.545 47.8434 268.563 47.8602 268.581C47.9063 268.631 47.9501 268.682 48.0006 268.731C48.0208 268.751 48.0433 268.767 48.0635 268.787C48.15 268.875 48.2354 268.961 48.3264 269.044C48.3455 269.061 48.3612 269.081 48.3814 269.098C48.4713 269.181 48.5667 269.257 48.6622 269.331C48.7083 269.368 48.7555 269.406 48.8026 269.442C48.8711 269.495 48.9408 269.548 49.0082 269.594C49.0363 269.614 49.0677 269.628 49.0958 269.648C49.2272 269.737 49.362 269.822 49.499 269.903C49.5428 269.928 49.5855 269.954 49.6293 269.979C49.6855 270.009 49.7394 270.043 49.7956 270.072C50.0191 270.189 50.2483 270.296 50.4841 270.387C50.5234 270.402 50.5639 270.414 50.6032 270.428C50.6616 270.45 50.72 270.473 50.7784 270.492C50.8717 270.524 50.9638 270.554 51.057 270.586C51.1199 270.602 51.1839 270.615 51.2468 270.63C51.3176 270.648 51.3884 270.665 51.4603 270.681C51.5299 270.697 51.5984 270.714 51.6692 270.727C51.7815 270.748 51.8949 270.763 52.0095 270.78C52.0286 270.782 52.0477 270.787 52.0679 270.789C52.1106 270.794 52.1522 270.807 52.196 270.811C52.251 270.817 52.3094 270.823 52.3667 270.827C52.3959 270.829 52.4251 270.833 52.4532 270.835C52.4588 270.835 52.4644 270.836 52.4701 270.836C52.6161 270.849 52.7599 270.852 52.9036 270.854C52.9441 270.856 52.98 270.86 53.0193 270.856C53.0373 270.856 53.0575 270.854 53.0755 270.854C53.1024 270.854 53.1294 270.852 53.1564 270.851C53.2451 270.85 53.3338 270.849 53.4226 270.84C53.4282 270.84 53.436 270.839 53.4428 270.839C53.4652 270.838 53.4866 270.836 53.5091 270.834C53.5349 270.832 53.5596 270.83 53.5854 270.827C53.6394 270.825 53.6922 270.817 53.7449 270.81C53.7685 270.808 53.7921 270.806 53.8157 270.803C53.8337 270.801 53.8528 270.801 53.8708 270.798C53.9539 270.784 54.0426 270.771 54.1257 270.758C54.247 270.737 54.3684 270.716 54.4885 270.689L220.546 233.613L220.917 233.529C221.037 233.502 221.156 233.47 221.274 233.438C221.355 233.415 221.441 233.39 221.521 233.365C221.548 233.36 221.568 233.349 221.591 233.344C221.628 233.329 221.67 233.315 221.707 233.301C221.729 233.297 221.75 233.286 221.771 233.281C221.819 233.264 221.861 233.25 221.904 233.234C221.908 233.227 221.913 233.226 221.924 233.224C221.976 233.201 222.034 233.177 222.086 233.153C222.129 233.137 222.176 233.122 222.217 233.1C222.225 233.097 222.234 233.092 222.242 233.089C222.243 233.088 222.244 233.088 222.245 233.088C222.304 233.06 222.362 233.032 222.42 233.005C222.549 232.942 222.678 232.878 222.805 232.804C222.809 232.801 222.813 232.798 222.818 232.796C222.849 232.779 222.878 232.76 222.908 232.742C222.946 232.72 222.986 232.697 223.023 232.675C223.043 232.664 223.069 232.648 223.089 232.636C223.11 232.626 223.124 232.612 223.144 232.602C223.175 232.582 223.2 232.556 223.23 232.535C223.496 232.359 223.749 232.169 223.986 231.96C223.992 231.955 224 231.951 224.006 231.946C224.045 231.914 224.082 231.877 224.12 231.84C224.159 231.809 224.192 231.778 224.225 231.742C224.267 231.704 224.309 231.66 224.35 231.616C224.367 231.601 224.386 231.579 224.404 231.559C224.423 231.539 224.441 231.519 224.46 231.499C224.526 231.43 224.589 231.358 224.651 231.292C224.659 231.278 224.668 231.266 224.678 231.257C224.719 231.21 224.756 231.157 224.796 231.108C224.832 231.063 224.868 231.018 224.903 230.972C224.915 230.955 224.929 230.939 224.941 230.922C224.95 230.909 224.964 230.894 224.973 230.881C225.007 230.834 225.042 230.785 225.073 230.738C225.105 230.702 225.13 230.663 225.156 230.622C225.177 230.589 225.197 230.557 225.218 230.525C225.24 230.489 225.261 230.453 225.284 230.417C225.328 230.347 225.373 230.278 225.412 230.205C225.453 230.134 225.493 230.057 225.533 229.98C225.556 229.937 225.578 229.893 225.599 229.85C225.659 229.733 225.713 229.615 225.769 229.496C225.786 229.444 225.808 229.394 225.83 229.34C225.843 229.307 225.854 229.273 225.867 229.241C225.898 229.16 225.93 229.079 225.956 228.996C225.979 228.944 225.989 228.891 226.007 228.841C226.024 228.786 226.041 228.736 226.058 228.68C226.075 228.625 226.089 228.565 226.102 228.516C226.146 228.357 226.178 228.191 226.21 228.028C226.208 228.016 226.215 227.998 226.217 227.98C226.223 227.928 226.234 227.874 226.243 227.814C226.253 227.755 226.261 227.69 226.27 227.626C226.273 227.619 226.272 227.613 226.271 227.608C226.279 227.555 226.281 227.501 226.286 227.447C226.29 227.398 226.296 227.348 226.3 227.299C226.301 227.274 226.305 227.251 226.307 227.227C226.31 227.214 226.312 227.198 226.309 227.186C226.31 227.118 226.317 227.041 226.317 226.966C226.319 226.926 226.322 226.885 226.318 226.846C226.322 226.824 226.319 226.8 226.316 226.777C226.322 226.756 226.324 226.73 226.324 226.706Z" fill="#306C9E"/>
<path d="M210.941 120.981L231.974 215.183C232 215.298 232.02 215.414 232.041 215.535C232.054 215.59 232.06 215.645 232.067 215.701C232.078 215.751 232.085 215.806 232.092 215.862C232.096 215.883 232.096 215.907 232.101 215.928C232.104 215.967 232.105 216.001 232.107 216.036C232.12 216.119 232.122 216.204 232.13 216.289C232.137 216.367 232.138 216.453 232.139 216.534C232.142 216.573 232.14 216.613 232.137 216.654C232.142 216.681 232.144 216.714 232.14 216.745C232.143 216.784 232.141 216.824 232.139 216.865C232.139 216.939 232.132 217.015 232.131 217.084C232.133 217.095 232.132 217.112 232.129 217.124C232.118 217.254 232.112 217.38 232.093 217.505C232.094 217.511 232.095 217.516 232.092 217.523C232.083 217.588 232.075 217.653 232.065 217.713C232.055 217.772 232.045 217.826 232.039 217.879C232.037 217.897 232.03 217.915 232.032 217.926C232 218.088 231.968 218.256 231.923 218.415C231.911 218.463 231.896 218.524 231.879 218.579C231.863 218.634 231.846 218.683 231.829 218.74C231.811 218.789 231.801 218.843 231.777 218.895C231.743 218.999 231.704 219.106 231.664 219.207C231.639 219.275 231.612 219.333 231.591 219.396C231.524 219.536 231.464 219.675 231.392 219.812C231.34 219.916 231.287 220.013 231.234 220.106C231.181 220.203 231.121 220.296 231.062 220.39C231.038 220.436 231.007 220.476 230.977 220.523C230.952 220.564 230.927 220.603 230.894 220.639C230.865 220.686 230.829 220.733 230.794 220.782C230.786 220.795 230.772 220.81 230.763 220.823C230.68 220.939 230.59 221.051 230.499 221.157C230.489 221.165 230.481 221.178 230.472 221.192C230.398 221.271 230.325 221.356 230.246 221.437C230.218 221.466 230.196 221.494 230.172 221.516C230.13 221.56 230.089 221.604 230.045 221.642C230.013 221.678 229.98 221.708 229.941 221.74C229.904 221.777 229.865 221.814 229.827 221.845C229.561 222.088 229.271 222.307 228.966 222.501C228.945 222.511 228.931 222.526 228.911 222.536C228.89 222.546 228.866 222.563 228.844 222.574C228.774 222.618 228.704 222.663 228.626 222.704C228.5 222.778 228.37 222.841 228.241 222.905C228.174 222.937 228.106 222.969 228.039 223.001C227.997 223.021 227.95 223.038 227.908 223.053C227.856 223.077 227.798 223.1 227.746 223.124C227.735 223.126 227.729 223.127 227.726 223.134C227.683 223.148 227.64 223.164 227.593 223.181C227.572 223.185 227.55 223.197 227.529 223.201C227.492 223.215 227.449 223.23 227.412 223.244C227.391 223.248 227.37 223.26 227.343 223.265C227.262 223.289 227.175 223.314 227.095 223.338C226.976 223.371 226.858 223.402 226.738 223.429L60.3091 260.588C60.1889 260.615 60.0676 260.636 59.9463 260.657C59.8632 260.67 59.7744 260.684 59.6913 260.697C59.5969 260.712 59.5015 260.721 59.406 260.726C59.3498 260.732 59.2948 260.739 59.2431 260.739C59.1083 260.752 58.9713 260.754 58.8399 260.755C58.8006 260.758 58.7657 260.755 58.7242 260.752C58.5804 260.749 58.4366 260.747 58.2906 260.734C58.203 260.725 58.121 260.72 58.039 260.71C57.6459 260.666 57.255 260.586 56.8764 260.482C56.7832 260.452 56.6911 260.42 56.5979 260.39C56.4934 260.356 56.3867 260.317 56.2856 260.276C55.6633 260.032 55.086 259.702 54.5592 259.292C54.4356 259.199 54.3154 259.1 54.2008 258.995C53.8077 258.647 53.4572 258.256 53.154 257.819C53.0854 257.72 53.0158 257.609 52.9462 257.504C52.8765 257.4 52.817 257.286 52.7518 257.175C52.6923 257.063 52.6328 256.949 52.5789 256.836C52.5261 256.727 52.48 256.624 52.4328 256.514C52.4238 256.499 52.4194 256.476 52.4092 256.462C52.3688 256.356 52.3261 256.245 52.2913 256.138C52.2846 256.134 52.2823 256.123 52.2801 256.113C52.2497 256.027 52.2262 255.947 52.2014 255.861C52.1475 255.696 52.1037 255.527 52.0655 255.353L31.0326 161.15C30.8517 160.343 30.8214 159.536 30.9225 158.758C31.0831 157.525 31.5751 156.366 32.3277 155.402C32.3367 155.388 32.3502 155.373 32.3637 155.359L32.6535 155.014C33.5756 153.989 34.8168 153.23 36.2681 152.907L202.696 115.746C202.86 115.709 203.02 115.68 203.181 115.661C203.207 115.65 203.241 115.647 203.27 115.646C203.425 115.623 203.587 115.605 203.74 115.593C203.773 115.591 203.813 115.589 203.847 115.587C203.983 115.579 204.12 115.578 204.253 115.582C204.287 115.58 204.32 115.579 204.356 115.582C204.523 115.584 204.685 115.595 204.849 115.609C205.001 115.622 205.161 115.643 205.309 115.666C205.522 115.699 205.735 115.75 205.941 115.806C206.056 115.832 206.171 115.863 206.284 115.901C206.48 115.961 206.674 116.032 206.859 116.117C206.863 116.11 206.865 116.116 206.865 116.116L207.273 116.306C207.292 116.313 207.312 116.32 207.324 116.328C207.433 116.379 207.532 116.437 207.631 116.494C207.708 116.535 207.782 116.581 207.855 116.628C208.081 116.766 208.298 116.919 208.508 117.09C208.604 117.165 208.697 117.242 208.783 117.32C209.154 117.643 209.487 118.011 209.778 118.415C209.859 118.523 209.937 118.637 210.014 118.752C210.015 118.758 210.022 118.762 210.023 118.767C210.144 118.952 210.251 119.145 210.352 119.341C210.403 119.438 210.447 119.532 210.492 119.63C210.526 119.709 210.56 119.781 210.589 119.861C210.624 119.939 210.653 120.018 210.682 120.098C210.721 120.192 210.753 120.288 210.781 120.385C210.811 120.465 210.835 120.55 210.853 120.632C210.882 120.747 210.915 120.866 210.941 120.981Z" fill="#F9C067"/>
<path d="M210.024 118.767L30.9238 158.755C31.0845 157.522 31.5764 156.364 32.329 155.399C32.338 155.385 32.3515 155.371 32.365 155.356L32.6548 155.011L101.569 73.4979C103.594 71.0975 106.971 70.3438 109.826 71.6546L206.86 116.116C206.865 116.11 206.866 116.115 206.866 116.115L207.275 116.305C207.294 116.313 207.313 116.32 207.325 116.328C207.434 116.378 207.533 116.437 207.632 116.494C207.709 116.534 207.784 116.58 207.857 116.627C208.082 116.766 208.299 116.918 208.509 117.089C208.606 117.164 208.698 117.242 208.784 117.319C209.155 117.643 209.489 118.01 209.78 118.415C209.86 118.522 209.938 118.637 210.015 118.752C210.015 118.757 210.022 118.762 210.024 118.767Z" fill="#DD9B31"/>
<path d="M213.212 186.673L56.9171 221.569L25.2536 79.7552C23.7665 73.0921 27.9618 66.4851 34.625 64.9968L166.79 35.4878C173.454 34.0006 180.061 38.196 181.549 44.8591L213.212 186.673Z" fill="white"/>
<path d="M169.753 89.4826L54.9085 115.124C53.3 115.484 51.6893 114.462 51.3298 112.852L51.0524 111.608C50.693 110 51.7162 108.389 53.3247 108.03L168.17 82.3882C169.778 82.0287 171.389 83.0509 171.748 84.6605L172.026 85.9039C172.384 87.5124 171.362 89.1232 169.753 89.4826Z" fill="#E4ECF9"/>
<path d="M173.136 104.638L58.2913 130.279C56.6828 130.639 55.0721 129.617 54.7127 128.007L54.4352 126.764C54.0758 125.155 55.0991 123.544 56.7076 123.185L171.552 97.5434C173.161 97.1839 174.772 98.2072 175.131 99.8157L175.409 101.059C175.768 102.669 174.746 104.28 173.136 104.638Z" fill="#E4ECF9"/>
<path d="M176.52 119.793L61.6751 145.435C60.0666 145.795 58.4559 144.772 58.0964 143.163L57.819 141.919C57.4596 140.311 58.4828 138.7 60.0913 138.341L174.936 112.699C176.545 112.34 178.155 113.362 178.515 114.971L178.792 116.215C179.151 117.824 178.128 119.435 176.52 119.793Z" fill="#E4ECF9"/>
<path d="M179.905 134.95L65.0599 160.591C63.4514 160.951 61.8407 159.927 61.4812 158.319L61.2038 157.076C60.8443 155.467 61.8676 153.856 63.4761 153.497L178.321 127.855C179.929 127.496 181.54 128.518 181.9 130.128L182.177 131.371C182.537 132.981 181.514 134.591 179.905 134.95Z" fill="#E4ECF9"/>
<path d="M183.289 150.106L68.4437 175.747C66.8352 176.107 65.2244 175.085 64.865 173.475L64.5876 172.232C64.2281 170.623 65.2514 169.012 66.8599 168.653L181.705 143.011C183.313 142.652 184.924 143.674 185.283 145.284L185.561 146.527C185.92 148.137 184.897 149.747 183.289 150.106Z" fill="#E4ECF9"/>
<path d="M98.8919 76.6088L48.806 87.792C47.1975 88.1514 45.5867 87.1292 45.2273 85.5196L44.9499 84.2762C44.5904 82.6677 45.6137 81.0569 47.2222 80.6975L97.3081 69.5144C98.9166 69.1549 100.527 70.1771 100.887 71.7867L101.164 73.0301C101.524 74.6386 100.5 76.2494 98.8919 76.6088Z" fill="#52D1BD"/>
<path d="M132.07 190.692L132.072 190.698C131.873 191.041 131.62 191.372 131.314 191.67L60.6809 260.504L60.3102 260.587C59.6284 260.74 58.9511 260.787 58.2917 260.734C58.1985 260.726 58.1053 260.718 58.0165 260.709C56.8584 260.578 55.761 260.153 54.8287 259.491C54.7411 259.43 54.6513 259.364 54.5614 259.293C54.2997 259.094 54.0537 258.867 53.8223 258.627C53.7414 258.547 53.6718 258.466 53.5965 258.385C53.5257 258.298 53.4494 258.212 53.3831 258.124C52.7597 257.335 52.2992 256.4 52.0655 255.352L31.0326 161.15C30.8518 160.342 30.8214 159.535 30.9225 158.757C31.0831 157.524 31.5751 156.366 32.3277 155.401C32.3367 155.387 32.3502 155.373 32.3637 155.358L32.6534 155.013C33.5756 153.988 34.8168 153.23 36.2681 152.906C37.2745 152.681 38.3225 152.741 39.2975 153.078L45.991 155.393L121.431 181.502L124.268 182.484L129.682 184.357C130.086 184.496 130.455 184.689 130.781 184.914L130.782 184.92C132.623 186.209 133.189 188.747 132.07 190.692Z" fill="#F4B545"/>
<path d="M210.941 120.98L231.974 215.183C232 215.297 232.02 215.413 232.041 215.534C232.054 215.589 232.061 215.645 232.067 215.701C232.078 215.75 232.085 215.805 232.092 215.861C232.096 215.883 232.096 215.906 232.101 215.928C232.104 215.967 232.105 216.001 232.108 216.035C232.12 216.119 232.122 216.204 232.13 216.288C232.137 216.367 232.138 216.452 232.139 216.533C232.141 216.544 232.14 216.561 232.143 216.572C232.141 216.596 232.143 216.624 232.138 216.653C232.144 216.68 232.146 216.714 232.141 216.744C232.145 216.783 232.143 216.824 232.14 216.864C232.14 216.939 232.138 217.008 232.132 217.083C232.135 217.095 232.134 217.111 232.13 217.124C232.125 217.251 232.113 217.38 232.094 217.505C232.095 217.51 232.096 217.516 232.093 217.523C232.084 217.588 232.081 217.646 232.066 217.712C232.061 217.765 232.049 217.819 232.04 217.879C232.037 217.891 232.036 217.908 232.034 217.926C232.001 218.088 231.97 218.255 231.925 218.414C231.912 218.463 231.898 218.523 231.881 218.578C231.864 218.633 231.847 218.683 231.83 218.739C231.812 218.788 231.802 218.842 231.779 218.894C231.745 218.999 231.706 219.105 231.665 219.206C231.64 219.275 231.613 219.332 231.592 219.395C231.527 219.541 231.461 219.677 231.393 219.812C231.342 219.915 231.289 220.013 231.235 220.105C231.182 220.203 231.123 220.296 231.063 220.389C231.039 220.435 231.008 220.476 230.979 220.523C230.953 220.563 230.928 220.603 230.896 220.639C230.866 220.686 230.831 220.733 230.796 220.781C230.788 220.795 230.773 220.809 230.764 220.823C230.681 220.938 230.591 221.051 230.5 221.156C230.49 221.164 230.482 221.178 230.473 221.191C230.399 221.271 230.326 221.355 230.248 221.436C230.22 221.465 230.197 221.493 230.173 221.516C230.132 221.56 230.09 221.603 230.047 221.642C230.014 221.678 229.981 221.708 229.942 221.739C229.905 221.776 229.867 221.813 229.829 221.845C229.562 222.088 229.273 222.307 228.967 222.501C228.947 222.511 228.927 222.527 228.912 222.536C228.892 222.546 228.867 222.563 228.846 222.574C228.775 222.618 228.705 222.663 228.628 222.703C228.501 222.777 228.372 222.84 228.243 222.904C228.175 222.937 228.108 222.968 228.04 223.001C227.999 223.021 227.952 223.038 227.909 223.052C227.857 223.076 227.799 223.1 227.747 223.123L227.73 223.127C227.682 223.143 227.636 223.165 227.593 223.18C227.572 223.185 227.551 223.196 227.529 223.201C227.492 223.214 227.455 223.229 227.412 223.243C227.391 223.248 227.37 223.259 227.343 223.265C227.262 223.288 227.175 223.313 227.096 223.338C226.977 223.37 226.859 223.402 226.739 223.429L226.368 223.512L133.165 191.258C132.761 191.118 132.392 190.926 132.072 190.699L132.071 190.694C130.224 189.404 129.66 186.878 130.781 184.92L130.78 184.915C130.973 184.574 131.226 184.242 131.532 183.945L135.629 179.948L137.779 177.852L194.955 122.134L200.141 117.081C200.805 116.434 201.636 115.985 202.541 115.783L202.696 115.748C202.86 115.711 203.02 115.682 203.182 115.663C203.207 115.651 203.241 115.649 203.27 115.648C203.425 115.624 203.587 115.606 203.74 115.595C203.774 115.593 203.813 115.591 203.848 115.588C203.984 115.581 204.121 115.579 204.253 115.584C204.287 115.582 204.321 115.581 204.357 115.584C204.523 115.586 204.686 115.596 204.85 115.611C205.001 115.623 205.161 115.645 205.309 115.668C205.523 115.701 205.735 115.751 205.941 115.807C206.056 115.833 206.172 115.865 206.284 115.903C206.481 115.962 206.674 116.033 206.859 116.119C206.864 116.112 206.865 116.117 206.865 116.117L207.274 116.307C207.293 116.315 207.312 116.322 207.324 116.33C207.433 116.38 207.532 116.439 207.631 116.496C207.708 116.536 207.783 116.582 207.856 116.63C208.081 116.768 208.298 116.921 208.508 117.091C208.605 117.167 208.697 117.244 208.783 117.322C209.154 117.645 209.488 118.012 209.779 118.417C209.859 118.525 209.937 118.639 210.014 118.754C210.016 118.759 210.022 118.764 210.023 118.768C210.145 118.954 210.251 119.147 210.353 119.342C210.403 119.44 210.447 119.533 210.492 119.632C210.527 119.711 210.56 119.783 210.59 119.862C210.624 119.941 210.654 120.02 210.683 120.099C210.721 120.194 210.754 120.289 210.782 120.387C210.811 120.467 210.836 120.552 210.853 120.634C210.883 120.746 210.915 120.865 210.941 120.98Z" fill="#F4B545"/>
<path opacity="0.25" d="M231.689 213.907L231.908 214.887C232.776 218.772 230.462 222.596 226.739 223.427L60.3101 260.585C56.5888 261.416 52.8674 258.94 52.0003 255.055L51.7812 254.076L124.808 178.644C127.075 176.302 130.46 175.546 133.507 176.702L231.689 213.907Z" fill="#8E5F13"/>
<path d="M231.764 214.244L231.974 215.183C232.805 218.905 230.461 222.597 226.739 223.428L60.3102 260.586C56.5889 261.418 52.8967 259.073 52.0655 255.352L51.8555 254.413L125.411 181.345C127.694 179.076 131.077 178.321 134.109 179.403L231.764 214.244Z" fill="#F9C067"/>
<path opacity="0.18" d="M232.928 89.3492C247.88 74.3977 247.88 50.1565 232.928 35.205C217.977 20.2535 193.736 20.2535 178.784 35.205C163.833 50.1565 163.833 74.3977 178.784 89.3492C193.736 104.301 217.977 104.301 232.928 89.3492Z" fill="#306C9E"/>
<path d="M210.871 94.7221C232.016 94.7221 249.157 77.5808 249.157 56.436C249.157 35.2912 232.016 18.1499 210.871 18.1499C189.726 18.1499 172.585 35.2912 172.585 56.436C172.585 77.5808 189.726 94.7221 210.871 94.7221Z" fill="#52D1BD"/>
<path d="M218.697 46.9983L219.894 44.4204L226.34 45.8144L218.843 62.5183C218.374 63.5764 218.102 64.284 218.025 64.6424C217.944 65.0164 217.974 65.3298 218.116 65.5814C218.256 65.833 218.457 65.988 218.718 66.0442C219.597 66.234 220.857 65.906 222.497 65.0591C224.137 64.2133 225.688 62.9126 227.149 61.158C228.61 59.4035 229.594 57.3547 230.102 55.0105C230.524 53.0571 230.553 51.1375 230.185 49.2515C229.818 47.3656 229.072 45.6369 227.945 44.0643C226.82 42.4918 225.306 41.1248 223.402 39.9633C221.497 38.8019 219.243 37.9392 216.639 37.3754C213.985 36.8014 211.476 36.6205 209.113 36.834C206.75 37.0474 204.589 37.6191 202.633 38.5514C200.676 39.4826 198.931 40.7788 197.395 42.4412C196.043 43.8869 194.888 45.5628 193.931 47.4678C192.973 49.374 192.268 51.3767 191.814 53.4761C191.208 56.2764 191.212 58.9564 191.825 61.5175C192.438 64.0785 193.637 66.3744 195.422 68.4041C197.205 70.435 199.533 72.1041 202.402 73.4161C205.27 74.7269 208.643 75.5963 212.521 76.0265C215.61 76.3197 218.309 76.1883 220.62 75.6312C222.929 75.074 225.006 74.0406 226.849 72.531L232.05 73.6565C230.827 75.2156 229.388 76.5309 227.733 77.6047C226.078 78.6785 224.238 79.485 222.212 80.0276C220.187 80.569 217.989 80.8397 215.621 80.8386C213.253 80.8374 210.734 80.5476 208.064 79.9703C204.059 79.1043 200.567 77.8002 197.588 76.0557C194.608 74.3113 192.237 72.2142 190.476 69.7633C188.715 67.3123 187.569 64.5929 187.039 61.6073C186.509 58.6217 186.603 55.4688 187.321 52.1473C188.071 48.6798 189.349 45.5661 191.157 42.8041C192.964 40.0431 195.195 37.7865 197.848 36.0342C200.501 34.2819 203.53 33.1194 206.935 32.5431C210.34 31.968 213.93 32.0882 217.707 32.9059C220.8 33.5754 223.539 34.6402 225.924 36.1016C228.308 37.563 230.237 39.3399 231.711 41.4303C233.184 43.5218 234.154 45.8312 234.621 48.3608C235.088 50.8892 235.019 53.5547 234.413 56.355C233.941 58.5364 233.088 60.5874 231.854 62.5104C230.621 64.4323 229.095 66.0711 227.277 67.4247C225.46 68.7782 223.46 69.7262 221.281 70.2687C219.102 70.8124 216.872 70.836 214.594 70.3429C213.276 70.0576 212.299 69.6128 211.663 69.0062C211.027 68.4008 210.693 67.5819 210.66 66.553C208.94 67.6471 207.121 68.1784 205.203 68.1458C203.284 68.1143 201.539 67.5572 199.966 66.4766C198.394 65.3949 197.256 63.901 196.553 61.9937C195.848 60.0864 195.763 57.904 196.294 55.4463C196.847 52.8909 197.941 50.4939 199.574 48.2575C201.209 46.0211 203.21 44.3328 205.578 43.1916C207.946 42.0515 210.408 41.7572 212.964 42.3098C215.893 42.9411 217.805 44.5047 218.697 46.9983ZM202.604 56.7571C202.181 58.7105 202.265 60.2954 202.853 61.5141C203.442 62.7328 204.395 63.4843 205.714 63.7685C207.244 64.0998 208.723 63.7797 210.151 62.8115C211.579 61.8432 212.795 60.4908 213.801 58.7576C214.807 57.0245 215.498 55.2868 215.875 53.5446C216.061 52.682 216.128 51.8822 216.074 51.1465C216.02 50.4107 215.85 49.739 215.564 49.1313C215.277 48.5248 214.882 48.0261 214.38 47.6363C213.877 47.2465 213.267 46.9736 212.55 46.8186C211.117 46.5085 209.707 46.7871 208.318 47.6543C206.928 48.5203 205.732 49.7783 204.729 51.4273C203.724 53.0762 203.016 54.8521 202.604 56.7571Z" fill="#F9F9F9"/>
<path d="M118.013 2.78651L122.971 0.179442C124.094 -0.41139 125.407 0.542252 125.193 1.79356L124.246 7.31435C124.16 7.81083 124.325 8.31741 124.686 8.67012L128.697 12.5802C129.606 13.4664 129.105 15.0098 127.849 15.1917L122.306 15.9971C121.807 16.0701 121.376 16.3824 121.153 16.8351L118.674 21.8582C118.113 22.9961 116.49 22.9961 115.928 21.8582L113.449 16.8351C113.225 16.3835 112.795 16.0701 112.296 15.9971L106.753 15.1917C105.497 15.0098 104.995 13.4653 105.905 12.5802L109.916 8.67012C110.277 8.31854 110.442 7.81195 110.357 7.31435L109.41 1.79356C109.195 0.542252 110.508 -0.41139 111.631 0.179442L116.589 2.78651C117.033 3.02127 117.566 3.02127 118.013 2.78651Z" fill="#63A4E5"/>
</svg>
