<svg width="63" height="62" viewBox="0 0 63 62" fill="none" xmlns="http://www.w3.org/2000/svg">
<g filter="url(#filter0_d_1_12214)">
<path fill-rule="evenodd" clip-rule="evenodd" d="M13.2003 31.7625L12.4228 32.542C10.8133 34.1069 9.80197 36.1854 9.56391 38.4175C9.44142 39.7615 9.61527 41.116 10.0732 42.3854C10.5311 43.6549 11.2619 44.8085 12.2141 45.7648C13.0633 46.6215 14.0742 47.3009 15.1882 47.7637C16.3022 48.2264 17.497 48.4633 18.7032 48.4604C18.9796 48.4604 19.2579 48.448 19.5383 48.4231C21.7667 48.1833 23.8402 47.1692 25.3976 45.5575L26.1765 44.7773C27.0137 43.9366 27.4838 42.7985 27.4838 41.612C27.4838 40.4255 27.0137 39.2874 26.1765 38.4467L19.5106 31.7625C18.6616 30.9489 17.5313 30.4948 16.3554 30.4948C15.1796 30.4948 14.0492 30.9489 13.2003 31.7625ZM24.788 41.6116C24.7888 41.8443 24.7435 42.0748 24.6547 42.2899C24.5659 42.505 24.4353 42.7003 24.2706 42.8646L23.4917 43.6449C22.3816 44.8083 20.8989 45.5459 19.3013 45.7296C19.0981 45.7472 18.9024 45.756 18.7039 45.756C17.801 45.7547 16.9083 45.565 16.0828 45.1991C15.2574 44.8332 14.5173 44.2991 13.91 43.631C13.3027 42.9628 12.8414 42.1753 12.5557 41.3188C12.27 40.4623 12.1661 39.5556 12.2507 38.6566C12.4336 37.0573 13.1693 35.5721 14.3307 34.4574L15.1082 33.6779C15.2718 33.5133 15.4664 33.3827 15.6807 33.2936C15.895 33.2045 16.1247 33.1587 16.3568 33.1587C16.5889 33.1587 16.8186 33.2045 17.0329 33.2936C17.2472 33.3827 17.4417 33.5133 17.6054 33.6779L24.2712 40.3627C24.4354 40.5266 24.5655 40.7213 24.6542 40.9356C24.7429 41.1499 24.7884 41.3797 24.788 41.6116ZM55.9914 2.01934C54.4675 0.477149 52.1214 -0.185251 49.0336 0.0443506C48.9744 0.0459262 48.9157 0.0552727 48.8589 0.07213L43.9641 1.11312C43.7072 1.16695 43.4713 1.29382 43.2847 1.47849C43.0981 1.66315 42.9688 1.89774 42.9123 2.1541L42.063 6.19752L38.0317 7.06311C37.7753 7.11515 37.54 7.24179 37.3553 7.42711C37.1705 7.61243 37.0447 7.84818 36.9935 8.10477L36.0358 12.6209L27.5547 21.1399L26.0722 19.6498C25.515 19.0886 24.8522 18.6432 24.1221 18.3393C23.392 18.0353 22.6089 17.8788 21.8181 17.8788C21.0272 17.8788 20.2442 18.0353 19.5141 18.3393C18.784 18.6432 18.1213 19.0886 17.5641 19.6498L8.24658 28.9964C5.52731 31.72 4 35.4114 4 39.2601C4 43.1088 5.52731 46.8001 8.24658 49.5237L8.46263 49.754C9.80677 51.1 11.4031 52.1679 13.1603 52.8964C14.9175 53.625 16.801 54 18.7032 54C20.6055 54 22.4891 53.625 24.2462 52.8964C26.0034 52.1679 27.5997 51.1 28.9439 49.754L38.2607 40.4074C39.3879 39.2734 40.0207 37.7395 40.0207 36.1405C40.0207 34.5415 39.3879 33.0075 38.2607 31.8736L29.4559 23.0438L38.22 14.2539C38.4053 14.0688 38.5321 13.8332 38.5844 13.5766L39.4473 9.51962L43.4785 8.6676C43.7349 8.61062 43.9694 8.4807 44.1536 8.29346C44.3379 8.10623 44.464 7.8697 44.5168 7.61239L45.3796 3.56963L49.3167 2.73116C51.5518 2.58216 53.1461 2.9743 54.0903 3.92115C55.0337 4.85378 55.4252 6.46302 55.2762 8.70823L54.4404 12.6568L50.4092 13.5089C50.1523 13.5676 49.9172 13.6977 49.731 13.8843C49.5449 14.0709 49.4154 14.3063 49.3573 14.5634L48.5081 18.6068L44.4633 19.4724C44.2064 19.5244 43.9707 19.6514 43.786 19.8375L38.8783 24.76L37.0442 22.9205L44.9726 14.9691C45.2252 14.7134 45.3668 14.3685 45.3668 14.009C45.3668 13.6496 45.2252 13.3047 44.9726 13.049C44.848 12.9238 44.6999 12.8244 44.5367 12.7566C44.3736 12.6888 44.1987 12.6539 44.022 12.6539C43.8454 12.6539 43.6704 12.6888 43.5073 12.7566C43.3442 12.8244 43.1961 12.9238 43.0715 13.049L34.1861 21.9743C33.9337 22.2274 33.7919 22.5702 33.7919 22.9276C33.7919 23.285 33.9337 23.6278 34.1861 23.8809L37.9207 27.6263C38.0453 27.7542 38.1943 27.8559 38.3587 27.9257C38.5231 27.9955 38.6997 28.0318 38.8783 28.0327C39.2383 28.0282 39.5821 27.8822 39.8354 27.6263L45.4176 22.0285L49.9209 21.0681C50.1772 21.0161 50.4125 20.8896 50.5972 20.7044C50.7819 20.5192 50.9078 20.2836 50.9592 20.0271L51.822 15.983L55.8539 15.1181C56.1103 15.0658 56.3454 14.9391 56.5301 14.7538C56.7148 14.5685 56.8407 14.3329 56.8922 14.0764L57.9298 9.16744C57.9434 9.11393 57.9434 9.0462 57.9569 8.99202C58.1912 5.90019 57.5282 3.5473 55.9914 2.01934ZM36.3459 33.7842C36.9677 34.4095 37.3167 35.2554 37.3167 36.1371C37.3167 37.0189 36.9677 37.8648 36.3459 38.49L27.0292 47.8366C25.9379 48.9337 24.6405 49.8043 23.2117 50.3984C21.7828 50.9924 20.2507 51.2983 18.7032 51.2983C17.1558 51.2983 15.6237 50.9924 14.1948 50.3984C12.766 49.8043 11.4686 48.9337 10.3773 47.8366L10.1477 47.6205C7.93726 45.401 6.69618 42.396 6.69618 39.2635C6.69618 36.1309 7.93726 33.126 10.1477 30.9064L19.4652 21.5598C19.7731 21.2513 20.1388 21.0066 20.5414 20.8396C20.9439 20.6726 21.3755 20.5867 21.8113 20.5867C22.2472 20.5867 22.6787 20.6726 23.0813 20.8396C23.4839 21.0066 23.8496 21.2513 24.1575 21.5598L36.3459 33.7842Z" fill="#008EFF"/>
</g>
<defs>
<filter id="filter0_d_1_12214" x="0" y="0" width="62.0029" height="62" filterUnits="userSpaceOnUse" color-interpolation-filters="sRGB">
<feFlood flood-opacity="0" result="BackgroundImageFix"/>
<feColorMatrix in="SourceAlpha" type="matrix" values="0 0 0 0 0 0 0 0 0 0 0 0 0 0 0 0 0 0 127 0" result="hardAlpha"/>
<feOffset dy="4"/>
<feGaussianBlur stdDeviation="2"/>
<feComposite in2="hardAlpha" operator="out"/>
<feColorMatrix type="matrix" values="0 0 0 0 0 0 0 0 0 0 0 0 0 0 0 0 0 0 0.25 0"/>
<feBlend mode="normal" in2="BackgroundImageFix" result="effect1_dropShadow_1_12214"/>
<feBlend mode="normal" in="SourceGraphic" in2="effect1_dropShadow_1_12214" result="shape"/>
</filter>
</defs>
</svg>
