<svg width="26" height="26" viewBox="0 0 26 26" fill="none" xmlns="http://www.w3.org/2000/svg">
<path fill-rule="evenodd" clip-rule="evenodd" d="M13.064 25.0638C19.7617 25.0638 25.1915 19.6343 25.1915 12.9362C25.1915 6.2381 19.7617 0.808511 13.064 0.808511C6.366 0.808511 0.936196 6.23812 0.936196 12.9362C0.936196 19.6342 6.366 25.0638 13.064 25.0638ZM13.064 25.8723C20.2083 25.8723 26 20.0808 26 12.9362C26 5.79157 20.2083 0 13.064 0C5.91949 0 0.127686 5.79157 0.127686 12.9362C0.127686 20.0808 5.91949 25.8723 13.064 25.8723Z" fill="white"/>
<path d="M13.1757 15.6408C11.6846 15.6408 10.4716 14.4277 10.4716 12.9366C10.4716 11.4455 11.6846 10.2324 13.1757 10.2324C14.6671 10.2324 15.8799 11.4455 15.8799 12.9366C15.8799 14.4277 14.6671 15.6408 13.1757 15.6408ZM13.1757 8.71484C10.848 8.71484 8.95435 10.6088 8.95435 12.9366C8.95435 15.2644 10.848 17.1583 13.1757 17.1583C15.5035 17.1583 17.3974 15.2644 17.3974 12.9366C17.3974 10.6088 15.5035 8.71484 13.1757 8.71484Z" fill="white"/>
<path d="M9.68295 5.97696C7.73289 5.97696 6.14665 7.56322 6.14665 9.51332V16.3576C6.14665 18.3077 7.73289 19.894 9.68295 19.894H16.5269C18.4769 19.894 20.0635 18.3077 20.0635 16.3576V9.51332C20.0635 7.56322 18.4769 5.97696 16.5269 5.97696H9.68295ZM16.5269 21.5067H9.68295C6.84398 21.5067 4.53394 19.197 4.53394 16.3576V9.51332C4.53394 6.67398 6.84398 4.36426 9.68295 4.36426H16.5269C19.3662 4.36426 21.6762 6.67398 21.6762 9.51332V16.3576C21.6762 19.197 19.3662 21.5067 16.5269 21.5067Z" fill="white"/>
</svg>
