<svg width="16" height="16" viewBox="0 0 16 16" fill="none" xmlns="http://www.w3.org/2000/svg">
<path d="M8.00016 1.33325C5.42016 1.33325 3.3335 3.41992 3.3335 5.99992C3.3335 9.49992 8.00016 14.6666 8.00016 14.6666C8.00016 14.6666 12.6668 9.49992 12.6668 5.99992C12.6668 3.41992 10.5802 1.33325 8.00016 1.33325ZM4.66683 5.99992C4.66683 4.15992 6.16016 2.66659 8.00016 2.66659C9.84016 2.66659 11.3335 4.15992 11.3335 5.99992C11.3335 7.91992 9.4135 10.7933 8.00016 12.5866C6.6135 10.8066 4.66683 7.89992 4.66683 5.99992Z" fill="white"/>
<path d="M8.00016 7.66658C8.92064 7.66658 9.66683 6.92039 9.66683 5.99992C9.66683 5.07944 8.92064 4.33325 8.00016 4.33325C7.07969 4.33325 6.3335 5.07944 6.3335 5.99992C6.3335 6.92039 7.07969 7.66658 8.00016 7.66658Z" fill="white"/>
</svg>
