<svg width="144" height="31" viewBox="0 0 144 31" fill="none" xmlns="http://www.w3.org/2000/svg">
<g clip-path="url(#clip0_1_12358)">
<path d="M50.8983 17.5648L50.0428 19.9739H49.9715C49.8289 19.4307 49.5675 18.604 49.1398 17.612L44.5535 6.15672H40.0623V24.4143H43.0326V13.148C43.0326 12.4394 43.0326 11.6364 43.0089 10.6444C42.9851 10.1484 42.9376 9.77045 42.9138 9.48702H42.9851C43.1277 10.1956 43.294 10.7152 43.4129 11.0459L48.9259 24.3671H51.0171L56.4826 10.9278C56.6014 10.6207 56.7202 10.0066 56.839 9.48702H56.9103C56.839 10.8333 56.7915 12.0379 56.7677 12.7701V24.3435H59.9282V6.10948H55.6034L50.8983 17.5648ZM62.9224 11.2585H66.0116V24.3435H62.9224V11.2585ZM64.4908 5.73157C63.968 5.73157 63.5402 5.92052 63.1838 6.25119C62.8274 6.58186 62.6372 7.00701 62.6372 7.52663C62.6372 8.02263 62.8274 8.44778 63.1838 8.77845C63.5402 9.10911 63.968 9.27445 64.4908 9.27445C65.0136 9.27445 65.4651 9.08549 65.7977 8.77845C66.1542 8.44778 66.3443 8.02263 66.3443 7.52663C66.3443 7.03063 66.1542 6.60548 65.7977 6.25119C65.4888 5.92052 65.0373 5.73157 64.4908 5.73157ZM76.9664 11.1404C76.3961 11.0223 75.802 10.9514 75.2317 10.9514C73.8297 10.9514 72.5465 11.2585 71.4771 11.8726C70.4078 12.4867 69.5523 13.3369 69.0058 14.3998C68.4355 15.4863 68.1503 16.7381 68.1503 18.1789C68.1503 19.4307 68.4355 20.5408 68.982 21.5564C69.5286 22.5484 70.289 23.3515 71.3108 23.8947C72.2851 24.438 73.4257 24.7214 74.7089 24.7214C76.1822 24.7214 77.4417 24.4143 78.4397 23.8475L78.4635 23.8239V20.9896L78.3447 21.084C77.8932 21.4147 77.3704 21.6981 76.8476 21.8635C76.3011 22.0524 75.802 22.1469 75.3743 22.1469C74.1386 22.1469 73.1643 21.7926 72.4752 21.0132C71.7623 20.2574 71.4059 19.2181 71.4059 17.9191C71.4059 16.5728 71.7623 15.5099 72.499 14.7305C73.2356 13.951 74.2099 13.5495 75.3981 13.5495C76.3961 13.5495 77.4179 13.8802 78.3447 14.5415L78.4635 14.636V11.6364L78.4397 11.6127C78.0358 11.4474 77.5843 11.2585 76.9664 11.1404ZM87.1608 11.0459C86.4004 11.0459 85.6875 11.2821 85.0697 11.7781C84.5469 12.2032 84.1904 12.8173 83.8815 13.5495H83.8577V11.2585H80.7685V24.3435H83.8577V17.6593C83.8577 16.5255 84.0954 15.5808 84.6182 14.8958C85.141 14.1872 85.8063 13.833 86.6143 13.833C86.8994 13.833 87.1846 13.9038 87.541 13.951C87.8737 14.0455 88.1113 14.14 88.2777 14.2581L88.3965 14.3526V11.2821L88.3252 11.2585C88.1114 11.1167 87.6836 11.0459 87.1608 11.0459ZM95.573 10.975C93.4105 10.975 91.6758 11.6127 90.4639 12.8646C89.2282 14.1164 88.6341 15.8406 88.6341 18.0135C88.6341 20.0448 89.252 21.6981 90.4401 22.9027C91.6283 24.0837 93.2442 24.6978 95.2641 24.6978C97.379 24.6978 99.0662 24.0601 100.278 22.7846C101.514 21.5092 102.108 19.8086 102.108 17.7065C102.108 15.628 101.538 13.9747 100.373 12.7701C99.2563 11.5655 97.6166 10.975 95.573 10.975ZM98.0443 21.0368C97.474 21.769 96.571 22.1233 95.4542 22.1233C94.3373 22.1233 93.4343 21.769 92.7927 20.9896C92.1511 20.2574 91.8422 19.1945 91.8422 17.8482C91.8422 16.4547 92.1748 15.3918 92.7927 14.636C93.4343 13.8802 94.3135 13.5023 95.4304 13.5023C96.5235 13.5023 97.379 13.8566 97.9968 14.5888C98.6147 15.321 98.9473 16.3838 98.9473 17.7774C98.8998 19.1945 98.6384 20.3046 98.0443 21.0368ZM108.999 16.6909C108.025 16.2893 107.407 15.9823 107.122 15.7225C106.884 15.4863 106.765 15.1556 106.765 14.7305C106.765 14.3762 106.908 14.0219 107.264 13.7857C107.621 13.5495 108.025 13.4314 108.619 13.4314C109.142 13.4314 109.688 13.5259 110.211 13.6676C110.734 13.8093 111.209 14.0219 111.589 14.3053L111.708 14.3998V11.5183L111.637 11.4947C111.28 11.3529 110.805 11.2112 110.235 11.0931C109.665 10.9986 109.142 10.9514 108.714 10.9514C107.241 10.9514 106.029 11.3057 105.078 12.0851C104.128 12.8173 103.676 13.8093 103.676 14.9667C103.676 15.5808 103.771 16.124 103.985 16.5728C104.199 17.0215 104.508 17.4467 104.936 17.801C105.363 18.1316 105.981 18.5096 106.837 18.8638C107.55 19.1709 108.096 19.4071 108.429 19.596C108.762 19.785 108.975 19.9976 109.142 20.1629C109.261 20.3518 109.332 20.588 109.332 20.8951C109.332 21.769 108.666 22.1941 107.312 22.1941C106.789 22.1941 106.243 22.0997 105.601 21.8871C104.959 21.6745 104.365 21.3675 103.866 21.0132L103.748 20.9187V23.9183L103.819 23.942C104.27 24.1545 104.817 24.2963 105.482 24.4616C106.148 24.5797 106.742 24.6742 107.264 24.6742C108.857 24.6742 110.164 24.3199 111.09 23.5404C112.041 22.7846 112.54 21.8162 112.54 20.5644C112.54 19.6905 112.302 18.9111 111.779 18.3206C111.09 17.7537 110.235 17.1633 108.999 16.6909ZM120.691 10.975C118.528 10.975 116.793 11.6127 115.582 12.8646C114.37 14.1164 113.752 15.8406 113.752 18.0135C113.752 20.0448 114.37 21.6981 115.558 22.9027C116.746 24.0837 118.362 24.6978 120.382 24.6978C122.497 24.6978 124.184 24.0601 125.396 22.7846C126.631 21.5092 127.226 19.8086 127.226 17.7065C127.226 15.628 126.655 13.9747 125.491 12.7701C124.374 11.5655 122.734 10.975 120.691 10.975ZM123.138 21.0368C122.568 21.769 121.665 22.1233 120.548 22.1233C119.407 22.1233 118.528 21.769 117.887 20.9896C117.245 20.2574 116.936 19.1945 116.936 17.8482C116.936 16.4547 117.269 15.3918 117.887 14.636C118.528 13.8802 119.407 13.5023 120.524 13.5023C121.594 13.5023 122.473 13.8566 123.091 14.5888C123.709 15.321 124.041 16.3838 124.041 17.7774C124.041 19.1945 123.732 20.3046 123.138 21.0368ZM143.741 13.7857V11.2585H140.628V7.38491L140.533 7.40853L137.586 8.28244L137.515 8.30606V11.2585H132.857V9.60512C132.857 8.8493 133.047 8.25882 133.38 7.88092C133.713 7.50301 134.212 7.31406 134.83 7.31406C135.257 7.31406 135.709 7.40853 136.208 7.62111L136.327 7.69196V5.02299L136.256 4.99938C135.828 4.85766 135.257 4.76318 134.521 4.76318C133.594 4.76318 132.786 4.97576 132.049 5.33004C131.313 5.73157 130.766 6.27481 130.362 7.00701C129.958 7.71558 129.744 8.51863 129.744 9.43978V11.2585H127.582V13.7621H129.744V24.3435H132.857V13.7857H137.515V20.5172C137.515 23.2806 138.822 24.6742 141.436 24.6742C141.864 24.6742 142.315 24.6033 142.743 24.5324C143.194 24.438 143.527 24.3199 143.717 24.2254L143.741 24.2018V21.6745L143.622 21.769C143.432 21.8871 143.266 21.9816 142.98 22.0524C142.743 22.1233 142.529 22.1469 142.363 22.1469C141.745 22.1469 141.317 22.0052 141.008 21.6509C140.723 21.3202 140.58 20.777 140.58 19.9739V13.7857H143.741Z" fill="#737373"/>
<path d="M0.235352 0.015625H14.8022V14.4942H0.235352V0.015625Z" fill="#F25022"/>
<path d="M16.323 0.015625H30.8898V14.4942H16.323V0.015625Z" fill="#7FBA00"/>
<path d="M0.235352 16.0059H14.8022V30.4844H0.235352V16.0059Z" fill="#00A4EF"/>
<path d="M16.323 16.0059H30.8898V30.4844H16.323V16.0059Z" fill="#FFB900"/>
</g>
<defs>
<clipPath id="clip0_1_12358">
<rect width="143.529" height="30.4688" fill="white" transform="translate(0.235352 0.015625)"/>
</clipPath>
</defs>
</svg>
