<svg width="63" height="55" viewBox="0 0 63 55" fill="none" xmlns="http://www.w3.org/2000/svg">
<path fill-rule="evenodd" clip-rule="evenodd" d="M57.3596 22.8283C56.3991 22.8319 55.4634 23.1329 54.6809 23.6899C53.8985 24.2469 53.3078 25.0325 52.9901 25.9389H43.6777C43.6256 25.9364 43.5734 25.9416 43.5228 25.9544L38.6265 17.4486C38.6672 17.4056 38.7036 17.3586 38.7349 17.3084L43.4298 9.23795C43.7148 9.30031 44.0058 9.33148 44.2975 9.33092C45.3203 9.32618 46.3132 8.98561 47.1235 8.36158C47.9338 7.73754 48.5167 6.86459 48.7826 5.87698C49.0484 4.88936 48.9824 3.84176 48.5948 2.89528C48.2072 1.9488 47.5194 1.15586 46.6372 0.638388C45.9283 0.220727 45.1203 0.000819774 44.2975 0.00156231C43.4845 0.00296777 42.686 0.217608 41.9818 0.624084C41.2776 1.03056 40.6923 1.61464 40.2844 2.31801C39.8021 3.15194 39.588 4.11404 39.6712 5.0738C39.7543 6.03356 40.1307 6.9445 40.7493 7.68304L36.0544 15.7535C36.0233 15.7872 36.0066 15.8316 36.0079 15.8774H26.0293C26.0207 15.8338 26.005 15.792 25.9828 15.7535L21.3034 7.68304C21.7444 7.14481 22.0666 6.51933 22.2486 5.8477C22.4299 5.15788 22.4506 4.43563 22.3089 3.73657C22.1673 3.03751 21.8672 2.38026 21.4316 1.81541C20.9961 1.25056 20.4368 0.793174 19.7967 0.478442C19.1566 0.163711 18.4529 3.26646e-05 17.7396 1.87423e-06C16.9168 -0.000740666 16.1088 0.219167 15.3999 0.636827C14.516 1.1546 13.827 1.94886 13.4393 2.89705C13.0516 3.84525 12.9867 4.89468 13.2546 5.88343C13.5225 6.87218 14.1083 7.74529 14.9217 8.36805C15.735 8.99082 16.7307 9.32863 17.7551 9.32936C18.0417 9.32992 18.3276 9.29875 18.6073 9.23639L23.3022 17.3068C23.3299 17.368 23.3725 17.4213 23.4262 17.4618L18.5299 25.9536C18.4741 25.9401 18.4167 25.9349 18.3594 25.9381H9.06258C8.69579 24.9007 7.97405 24.0263 7.02493 23.4695C6.0758 22.9128 4.96041 22.7094 3.87587 22.8955C2.79134 23.0816 1.80751 23.6451 1.09825 24.4864C0.389002 25.3277 0 26.3926 0 27.493C0 28.5934 0.389002 29.6584 1.09825 30.4997C1.80751 31.341 2.79134 31.9045 3.87587 32.0905C4.96041 32.2766 6.0758 32.0733 7.02493 31.5165C7.97405 30.9598 8.69579 30.0854 9.06258 29.0479H18.3594C18.4167 29.0512 18.4741 29.046 18.5299 29.0324L23.4262 37.5228C23.3721 37.5628 23.3294 37.6162 23.3022 37.6777L18.6073 45.7636C18.3276 45.701 18.0418 45.6696 17.7551 45.6699C16.7311 45.6716 15.7361 46.0099 14.9233 46.6328C14.1106 47.2558 13.5252 48.1287 13.2574 49.117C12.9897 50.1054 13.0543 51.1544 13.4415 52.1024C13.8287 53.0504 14.5168 53.8448 15.3999 54.3632C16.1088 54.7808 16.9168 55.0007 17.7396 55C18.4541 54.9993 19.1589 54.8347 19.7997 54.5187C20.4405 54.2028 21.0003 53.744 21.4358 53.1777C21.8714 52.6113 22.1712 51.9526 22.3121 51.2521C22.453 50.5517 22.4313 49.8283 22.2486 49.1376C22.0707 48.4661 21.7422 47.844 21.2879 47.3185L25.9828 39.2481C26.0051 39.2094 26.0208 39.1672 26.0293 39.1233H36.0079C36.0163 39.1672 36.032 39.2094 36.0544 39.2481L40.7493 47.3185C40.294 47.841 39.97 48.4647 39.8041 49.1376C39.642 49.7306 39.601 50.3502 39.6835 50.9594C39.766 51.5686 39.9704 52.155 40.2844 52.6835C40.6923 53.3869 41.2776 53.971 41.9818 54.3774C42.686 54.7839 43.4845 54.9986 44.2975 55C45.1203 55.0007 45.9283 54.7808 46.6372 54.3632C47.5198 53.8459 48.208 53.0529 48.5958 52.1063C48.9837 51.1596 49.0498 50.1118 48.7839 49.1239C48.518 48.1361 47.9349 47.2629 47.1243 46.6388C46.3137 46.0147 45.3205 45.6743 44.2975 45.6699C44.0058 45.6696 43.7148 45.701 43.4298 45.7636L38.7349 37.6777C38.7038 37.6273 38.6674 37.5803 38.6265 37.5375L43.5228 29.0316C43.5734 29.0445 43.6256 29.0497 43.6777 29.0472H52.9901C53.2777 29.8486 53.78 30.5556 54.4421 31.091C55.1042 31.6265 55.9006 31.9698 56.7444 32.0835C57.5883 32.1972 58.4472 32.077 59.2274 31.7358C60.0076 31.3947 60.6791 30.8459 61.1686 30.1492C61.6581 29.4524 61.9469 28.6346 62.0034 27.785C62.0598 26.9354 61.8818 26.0866 61.4888 25.3312C61.0958 24.5759 60.5028 23.9429 59.7747 23.5016C59.0465 23.0602 58.2111 22.8273 57.3596 22.8283ZM42.9495 3.88841C43.0864 3.65227 43.283 3.45634 43.5197 3.32034C43.7563 3.18433 44.0246 3.11306 44.2975 3.11367C44.5689 3.11723 44.8346 3.19156 45.0684 3.32932C45.3022 3.46708 45.496 3.66348 45.6306 3.89912C45.7652 4.13475 45.836 4.40146 45.8359 4.67284C45.8358 4.94421 45.7649 5.21084 45.6301 5.44639C45.4167 5.79541 45.0767 6.04849 44.6811 6.15272C44.2855 6.25696 43.865 6.20431 43.5073 6.00576C43.1559 5.79588 42.9007 5.45667 42.7965 5.06086C42.6922 4.66506 42.7471 4.24418 42.9495 3.88841ZM18.5299 6.00342C18.1722 6.20197 17.7516 6.25464 17.356 6.15041C16.9605 6.04617 16.6205 5.7931 16.4071 5.44407C16.2723 5.20853 16.2014 4.94187 16.2013 4.67049C16.2012 4.39912 16.2719 4.13244 16.4065 3.8968C16.5411 3.66116 16.7349 3.46474 16.9687 3.32698C17.2026 3.18922 17.4683 3.11489 17.7396 3.11133C18.0823 3.10759 18.4165 3.21756 18.69 3.42401C18.9635 3.63046 19.1609 3.92176 19.2512 4.25232C19.3415 4.58289 19.3197 4.93406 19.1892 5.25091C19.0587 5.56776 18.8268 5.83239 18.5299 6.00342ZM4.67758 29.0526C4.36982 29.0536 4.06867 28.9634 3.81226 28.7932C3.55584 28.623 3.35571 28.3805 3.23719 28.0965C3.11867 27.8124 3.0871 27.4997 3.14648 27.1977C3.20586 26.8957 3.35352 26.6181 3.57076 26.4001C3.788 26.1821 4.06504 26.0335 4.36681 25.9731C4.66858 25.9126 4.9815 25.9431 5.26593 26.0606C5.55037 26.1782 5.79353 26.3775 5.96463 26.6333C6.13572 26.8891 6.22705 27.1899 6.22705 27.4977C6.22665 27.909 6.06344 28.3034 5.7731 28.5948C5.48276 28.8861 5.0889 29.0507 4.67758 29.0526ZM19.0877 51.1178C18.8745 51.4671 18.5346 51.7205 18.1389 51.8249C17.7433 51.9292 17.3226 51.8766 16.9649 51.6779C16.7882 51.5748 16.6336 51.4379 16.5099 51.2749C16.3862 51.112 16.2959 50.9263 16.2441 50.7284C16.1923 50.5305 16.18 50.3243 16.208 50.1217C16.2359 49.919 16.3036 49.7239 16.4071 49.5474C16.547 49.315 16.7447 49.1227 16.9809 48.9893C17.2171 48.8558 17.4838 48.7857 17.7551 48.7859C18.028 48.7842 18.2964 48.8551 18.5329 48.9913C18.7694 49.1275 18.9654 49.3241 19.101 49.5609C19.2365 49.7977 19.3068 50.0663 19.3044 50.3392C19.3021 50.6121 19.2273 50.8795 19.0877 51.1139V51.1178ZM43.5073 48.988C43.8645 48.7873 44.2858 48.7335 44.682 48.8379C45.0782 48.9423 45.4182 49.1967 45.6301 49.5474C45.7336 49.7239 45.8012 49.919 45.8292 50.1217C45.8572 50.3243 45.8449 50.5305 45.7931 50.7284C45.7413 50.9263 45.6509 51.112 45.5272 51.2749C45.4036 51.4379 45.249 51.5748 45.0723 51.6779C44.8389 51.8202 44.5709 51.8955 44.2975 51.8956C44.0245 51.8967 43.756 51.8256 43.5193 51.6896C43.2826 51.5535 43.086 51.3573 42.9495 51.1209C42.7457 50.7623 42.69 50.3383 42.7942 49.9392C42.8984 49.5401 43.1542 49.1974 43.5073 48.9842V48.988ZM35.9304 36.019H26.1222L21.2259 27.4969L26.1222 18.9911H35.9304L40.8267 27.4969L35.9304 36.019ZM57.3596 29.0526C57.0518 29.0536 56.7507 28.9634 56.4943 28.7932C56.2378 28.623 56.0377 28.3805 55.9192 28.0965C55.8007 27.8124 55.7691 27.4997 55.8285 27.1977C55.8879 26.8957 56.0355 26.6181 56.2528 26.4001C56.47 26.1821 56.747 26.0335 57.0488 25.9731C57.3506 25.9126 57.6635 25.9431 57.9479 26.0606C58.2324 26.1782 58.4755 26.3775 58.6466 26.6333C58.8177 26.8891 58.909 27.1899 58.909 27.4977C58.9086 27.909 58.7454 28.3034 58.4551 28.5948C58.1648 28.8861 57.7709 29.0507 57.3596 29.0526Z" fill="#FFC947"/>
</svg>
