<svg width="116" height="41" viewBox="0 0 116 41" fill="none" xmlns="http://www.w3.org/2000/svg">
<g clip-path="url(#clip0_1_12375)">
<path fill-rule="evenodd" clip-rule="evenodd" d="M101.972 18.8916L94.6339 31.5881L88.3733 31.613L101.972 7.71545L115.519 31.613H109.16L101.972 18.8904V18.8916ZM82.2131 26.0859H89.225L85.9694 31.613H76.8302L76.855 24.8831V7.86237H82.2391L82.2143 26.0859H82.2131ZM62.9825 7.86362C69.6683 7.88852 75.0773 13.1927 75.0525 19.7495C75.0277 26.2826 69.6188 31.5881 62.9317 31.5881C56.2707 31.5632 50.8618 26.259 50.8618 19.701C50.8866 13.1678 56.2955 7.86362 62.9825 7.86362ZM62.9577 26.0623C66.538 26.0623 69.4167 23.2371 69.4167 19.7495C69.4427 16.2632 66.538 13.4131 62.9825 13.4131C59.4258 13.3882 56.5211 16.2383 56.5211 19.7259C56.4963 23.2122 59.401 26.0623 62.9565 26.0623H62.9577ZM40.8956 17.8632C40.8213 16.8795 40.5696 15.5784 40.194 14.327C39.421 11.7423 38.0773 9.36612 36.2628 7.37553C35.3107 6.34458 34.2346 5.38584 32.6304 4.25651C31.4075 3.65039 30.2052 3.0034 29.0253 2.31662C28.2492 1.8746 27.3219 1.33298 26.0958 0.940766C24.6421 0.59612 23.156 0.407053 21.6626 0.376728C20.2121 0.326923 18.7579 0.451435 17.3558 0.72038C15.8781 0.965669 14.6507 1.35788 13.023 1.75134C9.341 3.34758 6.48716 5.75439 4.03251 8.94812C-4.53149 20.9573 3.20685 37.7813 17.5058 39.7698C19.86 40.0897 22.2143 39.9665 24.442 39.451L26.0202 39.0339C26.0698 39.009 26.1454 38.9841 26.195 38.9841L27.9988 38.2968C28.098 38.247 28.1736 38.2221 28.274 38.1735L29.0253 37.8299C30.4668 37.1154 31.8199 36.2336 33.0569 35.2027C31.9309 36.2302 30.7062 37.1432 29.4009 37.9282L29.4753 37.978C29.727 37.9033 29.9514 37.8299 30.2018 37.7813C30.2018 37.7813 30.2018 38.1735 30.1522 38.1001C29.7518 38.3951 30.3778 38.125 31.1787 37.7066C31.9808 37.2895 32.7569 36.7728 33.4573 36.1838C34.485 35.3247 35.3863 34.3908 36.6632 32.8693C37.9649 30.5845 39.5939 28.5948 40.3452 25.9178C40.5956 25.2056 40.82 24.3714 40.9713 23.511C41.12 22.6519 41.2217 21.7678 41.2217 20.8589C41.1969 19.95 41.0965 19.0161 40.8956 17.8632ZM22.3643 38.0515C26.7467 37.3629 30.4274 34.9325 33.4325 31.6167C34.2594 30.4127 34.9103 29.307 35.7111 28.1042C36.7128 25.6476 36.6384 23.4625 36.9632 21.916C37.3649 19.1145 36.4128 16.8559 35.6119 14.449C34.3846 11.6488 32.7569 9.56196 29.9018 7.94082C22.6891 3.47084 12.873 4.72219 8.19054 11.4035C8.16574 11.4035 8.03929 11.5753 7.78887 11.919C8.11491 10.5444 8.94181 9.73379 9.76746 8.94687C12.2221 6.93352 15.0772 5.33603 18.3327 4.55161C22.0147 4.15815 25.6694 4.55161 28.9497 6.14785C33.859 8.94687 37.1145 13.3446 37.9401 18.5492V23.3641C36.9137 31.2482 30.1522 37.2409 22.3643 38.0515ZM40.37 20.1218C40.194 8.57956 28.7501 0.793842 17.6062 2.36643C14.3507 3.17575 10.794 4.7969 8.26492 7.05678C7.03759 7.86611 6.46236 9.36523 5.23504 10.568C0.325741 17.7648 1.17867 26.9749 7.28802 32.5755C8.07169 33.3536 8.90847 34.0759 9.79226 34.737C4.6846 31.6653 2.37996 27.0222 1.5791 21.3756C1.5791 19.361 1.97953 17.3713 2.40475 15.358C5.26107 6.54006 14.2503 0.130195 24.0429 1.75134C25.6706 2.14479 27.2984 2.56191 28.9522 2.95537C31.0051 3.76469 33.0333 4.96872 34.6611 6.56621C36.2888 8.1612 37.5162 10.1758 38.7435 12.1643C39.5691 13.7617 39.9708 15.7751 40.3712 17.3713C40.4456 18.2803 40.4456 19.2141 40.3712 20.123L40.37 20.1218Z" fill="black"/>
<path fill-rule="evenodd" clip-rule="evenodd" d="M30.203 20.2947C30.203 25.2564 26.0462 29.2844 20.9125 29.2844C15.7801 29.2844 11.6221 25.2564 11.6221 20.2947C11.6221 15.3341 15.7789 11.3062 20.9125 11.3062C26.0462 11.3062 30.203 15.3341 30.203 20.2959V20.2947Z" fill="white"/>
<path fill-rule="evenodd" clip-rule="evenodd" d="M30.2535 18.772C30.1283 18.0847 29.9275 17.5443 29.7279 16.7836C28.9258 15.1126 27.7493 13.8115 26.1959 12.7058C20.3866 8.85092 12.3978 12.5589 11.5474 19.1418C11.2226 21.7454 12.1486 24.2505 13.8012 26.1668C13.3003 25.65 12.7499 25.1109 12.3743 24.4958L12.3247 24.5456C12.3743 24.6925 12.5751 24.7909 12.6247 24.9378C12.6247 24.9378 12.4238 24.9378 12.4747 24.9129C12.3247 24.7424 12.4499 25.0125 12.6743 25.3799C12.8751 25.7484 13.1255 26.0933 13.4255 26.4121C13.852 26.879 14.302 27.2961 15.0533 27.8614C16.1566 28.4254 17.1323 29.1625 18.4092 29.5062C18.7601 29.6058 19.1605 29.7029 19.5622 29.7764C19.9874 29.8511 20.3878 29.876 20.8391 29.876C21.2643 29.876 21.7156 29.8262 22.266 29.7266C22.8336 29.6594 23.3947 29.5449 23.9433 29.3842C25.1689 29.0136 26.2979 28.3759 27.2497 27.5165C27.7257 27.0757 28.4026 26.5104 28.927 25.7733C29.3535 24.9391 29.4031 24.5207 29.6039 24.1522C29.8035 23.7836 30.0539 23.3665 30.23 22.8012C30.3735 22.1306 30.4573 21.4485 30.4804 20.763C30.4556 20.0757 30.406 19.412 30.2548 18.7733L30.2535 18.772ZM24.2929 14.2049C25.1446 14.6955 25.2698 14.769 24.8186 14.4502C25.4707 14.5971 25.8711 14.9657 26.2715 15.3342C27.2484 16.4399 28.0493 17.7411 28.4497 19.2389C28.6754 20.9335 28.4993 22.6281 27.7741 24.1273C26.4724 26.4108 24.3934 27.9336 21.9139 28.3507C21.6387 28.3507 21.3387 28.3507 21.0622 28.3756C21.7639 28.2523 22.2152 27.8103 23.4921 27.3434C24.8682 26.8528 26.4215 24.5693 27.1741 23.242C29.377 19.6311 26.7724 16.2917 24.2929 14.2049ZM19.5857 28.3993C15.7798 28.0071 12.8491 24.888 12.4486 21.2772C12.7982 23.2918 14.0008 24.8382 15.6285 26.2141C16.205 26.5826 17.0554 27.0981 17.6319 27.4667C18.6088 27.8352 19.1841 28.2287 20.1362 28.4005H19.5857V28.3993ZM29.8271 21.8425C29.6535 22.6045 29.4775 23.3404 29.3014 24.1024C28.9258 25.0362 28.3754 25.9937 27.6241 26.7545C26.8728 27.5165 25.9207 28.1054 24.9698 28.6707C24.2186 29.0629 23.2665 29.2596 22.4904 29.4551C22.0391 29.5049 21.5135 29.3082 21.0622 29.2845C26.6224 29.1364 30.4283 23.9554 29.6027 18.8218C29.201 17.3239 28.4001 16.0216 27.4232 14.7204C27.0228 14.1551 26.2455 13.8115 25.6703 13.2462C22.1891 11.061 17.5823 11.503 14.9529 14.3768C14.5842 14.7544 14.2408 15.1562 13.9252 15.5795C15.3285 13.5164 17.5823 12.0683 20.2862 11.6499C21.2383 11.625 22.2152 11.7981 23.166 11.9699C27.3737 13.2462 30.504 17.3239 29.8271 21.8437V21.8425Z" fill="#D7DF23"/>
</g>
<defs>
<clipPath id="clip0_1_12375">
<rect width="115.294" height="39.8438" fill="white" transform="translate(0.353027 0.328125)"/>
</clipPath>
</defs>
</svg>
