<svg width="56" height="58" viewBox="0 0 56 58" fill="none" xmlns="http://www.w3.org/2000/svg">
<path d="M41.75 40.25V45.25H46.75" stroke="#F5692D" stroke-width="2.5" stroke-miterlimit="10" stroke-linecap="round" stroke-linejoin="round"/>
<path d="M41.75 56.5C47.9632 56.5 53 51.4632 53 45.25C53 39.0368 47.9632 34 41.75 34C35.5368 34 30.5 39.0368 30.5 45.25C30.5 51.4632 35.5368 56.5 41.75 56.5Z" stroke="#F5692D" stroke-width="2.5" stroke-miterlimit="10" stroke-linecap="round" stroke-linejoin="round"/>
<path d="M54.25 19H1.75" stroke="#F5692D" stroke-width="2.5" stroke-miterlimit="10" stroke-linecap="round" stroke-linejoin="round"/>
<path d="M24.25 51.5H5.5C4.50544 51.5 3.55161 51.1049 2.84835 50.4016C2.14509 49.6984 1.75 48.7446 1.75 47.75V10.25C1.75 9.25544 2.14509 8.30161 2.84835 7.59835C3.55161 6.89509 4.50544 6.5 5.5 6.5H50.5C51.4946 6.5 52.4484 6.89509 53.1516 7.59835C53.8549 8.30161 54.25 9.25544 54.25 10.25V30.265" stroke="#F5692D" stroke-width="2.5" stroke-miterlimit="10" stroke-linecap="round" stroke-linejoin="round"/>
<path d="M14.25 1.5V11.5" stroke="#F5692D" stroke-width="2.5" stroke-miterlimit="10" stroke-linecap="round" stroke-linejoin="round"/>
<path d="M41.75 1.5V11.5" stroke="#F5692D" stroke-width="2.5" stroke-miterlimit="10" stroke-linecap="round" stroke-linejoin="round"/>
</svg>
