<svg width="100" height="38" viewBox="0 0 100 38" fill="none" xmlns="http://www.w3.org/2000/svg">
<g clip-path="url(#clip0_1_12387)">
<path d="M81.84 36.4063C91.2263 36.4063 98.8637 28.6757 98.8637 19.1751C98.8637 9.66885 91.2263 1.94385 81.84 1.94385C72.4517 1.94385 64.8162 9.66885 64.8162 19.1751C64.8162 28.6757 72.4517 36.4063 81.84 36.4063ZM81.84 13.0307C85.1851 13.0307 87.9092 15.787 87.9092 19.1732C87.9092 22.5595 85.1832 25.312 81.8381 25.312C78.4912 25.312 75.7707 22.5595 75.7707 19.1713C75.7707 15.7813 78.493 13.027 81.8381 13.027L81.84 13.0307ZM17.6121 36.4063C26.9985 36.4063 34.6359 28.6757 34.6359 19.1751C34.6359 9.66885 26.9985 1.94385 17.6121 1.94385C8.22762 1.94385 0.588379 9.66885 0.588379 19.1751C0.588379 28.6757 8.22762 36.4063 17.6121 36.4063ZM17.6121 13.0307C20.9591 13.0307 23.6814 15.787 23.6814 19.1732C23.6814 22.5595 20.9591 25.312 17.6121 25.312C14.267 25.312 11.5466 22.5595 11.5466 19.1713C11.5466 15.7813 14.2689 13.027 17.6121 13.027V13.0307ZM49.7167 12.6426L44.4903 2.16885H32.2529L43.6829 25.0813V35.8682H55.7524V25.0813L67.1824 2.16885H54.9395L49.7186 12.6426H49.7167Z" fill="#EE2E24"/>
</g>
<defs>
<clipPath id="clip0_1_12387">
<rect width="98.8235" height="37.5" fill="white" transform="translate(0.588379 0.5)"/>
</clipPath>
</defs>
</svg>
