<svg width="21" height="21" viewBox="0 0 21 21" fill="none" xmlns="http://www.w3.org/2000/svg">
<path d="M10.5 5.1625C11.515 5.1625 12.3375 5.985 12.3375 7C12.3375 8.015 11.515 8.8375 10.5 8.8375C9.485 8.8375 8.6625 8.015 8.6625 7C8.6625 5.985 9.485 5.1625 10.5 5.1625ZM10.5 13.0375C13.0988 13.0375 15.8375 14.315 15.8375 14.875V15.8375H5.1625V14.875C5.1625 14.315 7.90125 13.0375 10.5 13.0375ZM10.5 3.5C8.56625 3.5 7 5.06625 7 7C7 8.93375 8.56625 10.5 10.5 10.5C12.4338 10.5 14 8.93375 14 7C14 5.06625 12.4338 3.5 10.5 3.5ZM10.5 11.375C8.16375 11.375 3.5 12.5475 3.5 14.875V17.5H17.5V14.875C17.5 12.5475 12.8363 11.375 10.5 11.375Z" fill="#B1B1B0"/>
</svg>
