<svg width="22" height="22" viewBox="0 0 22 22" fill="none" xmlns="http://www.w3.org/2000/svg">
<path fill-rule="evenodd" clip-rule="evenodd" d="M5.5 7.51501C5.5 6.59938 6.24226 5.85712 7.15789 5.85712H8.83918C9.54341 5.85712 10.1767 6.28587 10.4382 6.93972L11.0825 8.5504C11.3174 9.13774 11.2115 9.8066 10.8065 10.2926L10.4598 10.7086C10.2206 10.9956 10.2398 11.4176 10.5039 11.6817L11.6754 12.8532C11.9396 13.1173 12.3615 13.1365 12.6485 12.8974L13.0646 12.5506C13.5505 12.1456 14.2194 12.0397 14.8067 12.2746L16.4174 12.9189C17.0713 13.1804 17.5 13.8137 17.5 14.5179V16.1992C17.5 17.1149 16.7577 17.8571 15.8421 17.8571C10.1303 17.8571 5.5 13.2268 5.5 7.51501ZM7.15789 6.85712C6.79455 6.85712 6.5 7.15167 6.5 7.51501C6.5 12.6745 10.6826 16.8571 15.8421 16.8571C16.2055 16.8571 16.5 16.5626 16.5 16.1992V14.5179C16.5 14.2226 16.3202 13.957 16.046 13.8474L14.4353 13.2031C14.189 13.1046 13.9085 13.149 13.7047 13.3188L13.2887 13.6656C12.6044 14.2358 11.5982 14.1902 10.9683 13.5603L9.7968 12.3888C9.16695 11.759 9.1213 10.7527 9.69154 10.0685L10.0383 9.65238C10.2081 9.44859 10.2525 9.1681 10.154 8.92179L9.50975 7.31111C9.40007 7.03691 9.1345 6.85712 8.83918 6.85712H7.15789Z" fill="#B1B1B0"/>
</svg>
