<svg width="1600" height="627" viewBox="0 0 1600 627" fill="none" xmlns="http://www.w3.org/2000/svg">
<rect y="14" width="1600" height="613" fill="#12141D"/>
<path d="M0 17L1601 99V0H0V17Z" fill="white"/>
<path fill-rule="evenodd" clip-rule="evenodd" d="M413.029 288.905L428.166 289H471.428C481.161 289 486.323 276.505 477.383 270.238C474.077 267.921 470.925 268.545 468.262 268.981C465.318 269.461 464.322 267.619 465.353 264.947C468.303 257.297 462.432 253.598 458.382 254.035C454.671 254.436 453.195 256.17 449.429 257.963C447.997 258.647 446.064 258.676 443.02 256.472C434.456 250.269 424.014 256.815 423.617 264.263C422.868 278.368 412.375 275.697 413.029 288.905Z" stroke="white" stroke-opacity="0.16" stroke-width="2.75" stroke-miterlimit="22.93"/>
<path d="M1134 309.63L1141.29 292L1145.59 307.019L1171.75 292L1162.81 318.445L1185 321.384L1174.4 330.204L1184.34 340L1162.15 338.694" stroke="#FFCC00" stroke-width="2.75" stroke-miterlimit="22.93"/>
<path d="M847 152L858 135" stroke="#60EEAA" stroke-width="2.75" stroke-miterlimit="22.93"/>
<path d="M838 148L842 135" stroke="#60EEAA" stroke-width="2.75" stroke-miterlimit="22.93"/>
<path d="M853 156L866 150" stroke="#60EEAA" stroke-width="2.75" stroke-miterlimit="22.93"/>
</svg>
