<svg width="21" height="21" viewBox="0 0 21 21" fill="none" xmlns="http://www.w3.org/2000/svg">
<path d="M19.7302 17.8953L15.2313 13.3961C16.212 12.1042 16.8 10.497 16.8 8.74981C16.8 4.49731 13.3525 1.0498 9.09996 1.0498C4.84746 1.0498 1.39996 4.49731 1.39996 8.74981C1.39996 13.0023 4.84746 16.4498 9.09996 16.4498C10.8472 16.4498 12.4544 15.8618 13.7462 14.8811L18.2455 19.38C18.3935 19.5281 18.5878 19.5998 18.7817 19.5998C18.9752 19.5998 19.1684 19.5277 19.3158 19.38L19.7302 18.9656C19.8779 18.8186 19.95 18.6251 19.95 18.4319C19.95 18.2376 19.8782 18.0434 19.7302 17.8953ZM2.79996 8.74981C2.79996 5.27045 5.62061 2.4498 9.09996 2.4498C12.5793 2.4498 15.4 5.27045 15.4 8.74981C15.4 12.2292 12.5793 15.0498 9.09996 15.0498C5.62061 15.0498 2.79996 12.2292 2.79996 8.74981Z" fill="black"/>
</svg>
