<svg width="54" height="54" viewBox="0 0 54 54" fill="none" xmlns="http://www.w3.org/2000/svg">
<path fill-rule="evenodd" clip-rule="evenodd" d="M27.4185 0.0135287C27.27 2.87466e-05 27.135 2.58624e-05 27 2.58624e-05C22.4708 -0.00625009 18.0131 1.1298 14.0394 3.30307C10.0657 5.47635 6.70424 8.61666 4.26597 12.4335C4.15883 12.5822 4.0831 12.7512 4.0434 12.9302C4.00369 13.1091 4.00083 13.2943 4.03501 13.4744C4.0692 13.6545 4.13971 13.8257 4.24222 13.9776C4.34474 14.1296 4.47714 14.2591 4.63132 14.3582C4.78551 14.4573 4.95826 14.524 5.13906 14.5542C5.31986 14.5844 5.50492 14.5774 5.68294 14.5337C5.86096 14.4901 6.02823 14.4106 6.17455 14.3002C6.32086 14.1898 6.44314 14.0507 6.53396 13.8915C7.40263 12.5449 8.39708 11.2838 9.50396 10.125H17.4555C16.6948 12.2766 16.1212 14.4898 15.741 16.74H15.7275C14.3159 17.0839 12.8729 17.283 11.421 17.334C11.2377 17.3444 11.0583 17.3916 10.8937 17.4728C10.729 17.554 10.5824 17.6675 10.4625 17.8065C10.3382 17.9444 10.2449 18.1073 10.189 18.2843C10.1331 18.4613 10.1159 18.6483 10.1385 18.8325C10.3619 21.1263 10.7316 23.4034 11.2455 25.65H2.75396C2.82393 24.0639 3.05921 22.4893 3.45597 20.952C3.50369 20.7798 3.51666 20.5999 3.49412 20.4226C3.47157 20.2454 3.41396 20.0744 3.32465 19.9197C3.23533 19.7649 3.11611 19.6295 2.97392 19.5213C2.83173 19.4132 2.66943 19.3344 2.49647 19.2896C2.32351 19.2448 2.14336 19.2348 1.96653 19.2604C1.7897 19.2859 1.61973 19.3464 1.46652 19.4383C1.31331 19.5302 1.17993 19.6517 1.07417 19.7957C0.968398 19.9397 0.892355 20.1033 0.850477 20.277C-0.16627 24.2308 -0.272871 28.3638 0.538726 32.3648C1.35032 36.3658 3.05896 40.1305 5.53601 43.3756C8.01306 46.6208 11.194 49.2617 14.8393 51.0996C18.4847 52.9376 22.4995 53.9246 26.5815 53.9865C26.7165 54 26.865 54 27 54C27.135 54 27.27 54 27.4185 53.9865C34.5018 53.8745 41.2571 50.982 46.2267 45.9332C51.1962 40.8845 53.9815 34.0842 53.9815 27C53.9815 19.9158 51.1962 13.1156 46.2267 8.0668C41.2571 3.01804 34.5018 0.125558 27.4185 0.0135287ZM51.2594 25.65H42.7544C43.273 23.4037 43.6473 21.1266 43.8749 18.8325C43.8933 18.648 43.8739 18.4618 43.8178 18.285C43.7618 18.1083 43.6704 17.9449 43.5491 17.8046C43.4279 17.6644 43.2793 17.5504 43.1125 17.4695C42.9457 17.3885 42.7641 17.3425 42.5789 17.334C41.127 17.283 39.684 17.0839 38.2725 16.74H38.2589C37.8787 14.4898 37.3051 12.2766 36.5445 10.125H44.4554C48.5266 14.3067 50.9439 19.8224 51.2594 25.65ZM41.391 7.42502H35.4375C34.7983 6.00763 33.9867 4.67455 33.021 3.45602C36.0406 4.22731 38.8828 5.57504 41.391 7.42502ZM26.703 2.71353C26.9005 2.69553 27.0994 2.69553 27.297 2.71353C30.3885 3.02403 33.669 8.00552 35.3295 15.8085C32.4846 14.7081 29.9764 12.8839 28.053 10.5165C27.9282 10.3563 27.7685 10.2268 27.5859 10.1379C27.4034 10.049 27.203 10.003 27 10.0035C26.7972 10.0045 26.5972 10.0511 26.4149 10.1399C26.2326 10.2287 26.0727 10.3574 25.947 10.5165C24.0235 12.8839 21.5153 14.7081 18.6705 15.8085C20.331 8.00552 23.6115 3.02403 26.703 2.71353ZM12.5955 7.42502C15.1076 5.56198 17.9603 4.20902 20.9925 3.44253C20.024 4.6666 19.208 6.00391 18.5625 7.42502H12.5955ZM15.2955 19.602C16.25 19.4225 17.1923 19.1836 18.117 18.8865C21.4904 17.8396 24.5456 15.9592 27 13.419C29.4544 15.9592 32.5095 17.8396 35.883 18.8865C36.8076 19.1836 37.75 19.4225 38.7044 19.602C39.4604 19.7505 40.2435 19.8585 41.0265 19.9395C40.788 21.8611 40.441 23.7677 39.9869 25.65C39.7574 26.6085 39.501 27.513 39.2175 28.35C39.192 28.442 39.1604 28.5322 39.1229 28.62C38.3793 30.9794 37.2775 33.2104 35.8559 35.235C33.7747 38.3007 30.6111 40.4661 27 41.2965C23.3855 40.4572 20.2191 38.2885 18.1305 35.2215C16.7163 33.1945 15.6192 30.964 14.877 28.6065C14.8396 28.5233 14.808 28.4376 14.7825 28.35C14.5125 27.513 14.256 26.6085 14.0265 25.65C13.5611 23.7694 13.2094 21.8624 12.9735 19.9395C13.7565 19.8585 14.5395 19.7505 15.2955 19.602ZM2.74047 28.35H11.961C12.7587 31.1103 13.9645 33.7357 15.5385 36.1395C15.9345 38.7722 16.5763 41.362 17.4555 43.875H9.54448C5.47335 39.6933 3.05603 34.1776 2.74047 28.35ZM12.6225 46.575H18.5625C19.1971 47.9877 20.0042 49.3163 20.9655 50.5305C17.9538 49.7668 15.12 48.4232 12.6225 46.575ZM27 51.3C24.0975 51.3 20.979 47.088 19.143 40.203C21.3217 42.0407 23.9022 43.3402 26.676 43.9965C26.8886 44.0505 27.1113 44.0505 27.324 43.9965C30.0957 43.3422 32.6757 42.0476 34.857 40.2165C33.021 47.088 29.9025 51.3 27 51.3ZM33.0345 50.544C33.9909 49.3216 34.7976 47.9891 35.4375 46.575H41.391C38.8877 48.4248 36.05 49.7726 33.0345 50.544ZM44.4554 43.875H36.5445C37.4252 41.3727 38.0627 38.7912 38.4479 36.1665C40.0318 33.7567 41.2424 31.1215 42.0389 28.35H51.2594C50.9439 34.1776 48.5266 39.6933 44.4554 43.875Z" fill="#14B082"/>
</svg>
