<svg width="54" height="54" viewBox="0 0 54 54" fill="none" xmlns="http://www.w3.org/2000/svg">
<path fill-rule="evenodd" clip-rule="evenodd" d="M53.9196 8.15392C53.9033 7.35242 53.5716 6.58967 52.9966 6.03114C52.4215 5.47262 51.6494 5.16335 50.8477 5.17045C50.2048 5.17449 49.5788 5.37725 49.0556 5.75094C47.2897 6.8965 45.2201 7.48446 43.1157 7.43843C40.1646 7.42493 36.3118 6.33143 35.1663 3.22647C34.8536 2.3004 34.2626 1.49348 33.4741 0.915983C32.6855 0.338482 31.7379 0.0185805 30.7606 0H23.2007C22.2217 0.0182564 21.2722 0.337828 20.4814 0.915179C19.6907 1.49253 19.0971 2.2996 18.7815 3.22647C17.634 6.33143 13.7825 7.43843 10.8314 7.43843C8.72731 7.48217 6.65836 6.8944 4.8915 5.75094C4.36859 5.37719 3.74282 5.17441 3.10008 5.17045C2.29832 5.16318 1.52603 5.47235 0.950801 6.0309C0.375574 6.58944 0.0438214 7.3523 0.0275059 8.15392C-0.565138 35.1131 8.4217 50.53 26.7329 53.986C26.8132 53.9972 26.8942 54.0017 26.9752 53.9995C27.061 54.0013 27.1467 53.9968 27.2317 53.986C31.6878 53.2131 35.9168 51.461 39.6138 48.856C40.3335 48.9915 41.0644 49.0593 41.7967 49.0585C45.0145 49.0506 48.0979 47.7673 50.371 45.4898C52.6441 43.2123 53.9214 40.1264 53.923 36.9086C53.9283 34.4031 53.1513 31.9584 51.7002 29.9157C53.3688 23.7868 54.1086 16.5328 53.9196 8.15392ZM42.656 46.3045C42.3701 46.3431 42.0818 46.3611 41.7934 46.3585C40.8279 46.3631 39.8681 46.2127 38.9503 45.913C37.7149 45.525 36.5738 44.8842 35.5995 44.0312C34.6252 43.1783 33.8391 42.1319 33.2911 40.9586C32.8782 40.1269 32.6046 39.233 32.4812 38.3126C32.4 37.849 32.3593 37.3793 32.3597 36.9086C32.3617 34.8978 33.0039 32.9399 34.1933 31.3185C35.3826 29.6972 37.0573 28.4966 38.9746 27.8907H38.9881C39.8944 27.603 40.8398 27.4573 41.7907 27.4587H41.9122C43.1912 27.4761 44.4532 27.7545 45.6208 28.2768C46.7884 28.7991 47.8371 29.5543 48.7026 30.4962C49.5193 31.3664 50.1559 32.3895 50.5757 33.5067C51.0046 34.5895 51.224 35.7439 51.2223 36.9086C51.223 39.2609 50.3449 41.5285 48.7601 43.2667C47.1754 45.005 44.9983 46.0884 42.656 46.3045ZM49.5005 27.5397C47.5324 25.9099 45.0984 24.9458 42.548 24.7857C42.9548 22.8829 43.2516 20.9583 43.437 19.0213C43.4595 18.8392 43.4422 18.6544 43.3864 18.4796C43.3306 18.3048 43.2375 18.1442 43.1137 18.0088C42.9961 17.8675 42.8503 17.7525 42.6856 17.6711C42.5208 17.5897 42.3408 17.5438 42.1572 17.5363C36.3522 17.2933 31.2027 14.8768 28.0228 10.8944C27.8933 10.7421 27.7322 10.6198 27.5508 10.5359C27.3693 10.452 27.1718 10.4086 26.9719 10.4086C26.7719 10.4086 26.5745 10.452 26.393 10.5359C26.2115 10.6198 26.0505 10.7421 25.9209 10.8944C22.741 14.8768 17.5942 17.2933 11.7872 17.5363C11.4292 17.5506 11.0915 17.7064 10.8484 17.9697C10.6053 18.2329 10.4767 18.5819 10.4909 18.94C10.5051 19.298 10.661 19.6357 10.9243 19.8788C11.1875 20.1219 11.5365 20.2505 11.8946 20.2363C17.8905 19.9933 23.2938 17.6578 26.9719 13.7834C30.6067 17.4681 35.447 19.7205 40.6067 20.1283C40.4117 21.7392 40.133 23.3388 39.7718 24.9207C36.9443 25.4067 34.3796 26.8762 32.5305 29.0698C30.6814 31.2633 29.667 34.0397 29.6664 36.9086C29.6657 37.8956 29.7833 38.8791 30.0168 39.8381C30.2294 40.6993 30.5413 41.5329 30.9462 42.3221C32.1104 44.6651 34.0011 46.5688 36.3361 47.749C33.4504 49.4771 30.2788 50.6749 26.9712 51.286C10.3313 48.019 2.16588 33.5337 2.7187 8.22141C2.72289 8.15297 2.7458 8.08699 2.78491 8.03066C2.82401 7.97434 2.87781 7.92983 2.94047 7.90198C3.00314 7.87413 3.07223 7.86401 3.14024 7.87273C3.20826 7.88145 3.2726 7.90867 3.32621 7.95142C5.54586 9.42934 8.16466 10.1925 10.8308 10.1384C15.8568 10.1384 19.9661 7.78942 21.3134 4.15796C21.4406 3.75091 21.6898 3.39276 22.0272 3.13199C22.3646 2.87121 22.7741 2.7204 23.2 2.69997H30.7599C31.1836 2.72276 31.5901 2.87468 31.9248 3.13533C32.2595 3.39597 32.5065 3.75284 32.6324 4.15796C33.362 6.02161 34.7334 7.56326 36.4994 8.50492C38.5259 9.61279 40.8052 10.1756 43.1144 10.1384C45.7807 10.1925 48.3997 9.42931 50.6196 7.95142C50.6843 7.89897 50.7651 7.87038 50.8484 7.87042C50.9447 7.86802 51.0381 7.90341 51.1086 7.96901C51.1792 8.03461 51.2212 8.1252 51.2257 8.22141C51.4663 14.7078 50.8867 21.1986 49.5005 27.5397ZM30.9469 42.3221C29.7798 42.8841 28.5555 43.3186 27.2952 43.6181C27.083 43.6721 26.8607 43.6721 26.6485 43.6181C18.7801 41.7011 13.8351 35.7476 11.5172 25.4202C11.4791 25.2477 11.4754 25.0693 11.5062 24.8953C11.537 24.7214 11.6018 24.5551 11.6968 24.4062C11.7919 24.2572 11.9154 24.1284 12.0602 24.0272C12.205 23.926 12.3683 23.8542 12.5409 23.8161C12.7134 23.778 12.8918 23.7743 13.0657 23.8051C13.2397 23.8359 13.406 23.9007 13.5549 23.9957C13.7039 24.0908 13.8327 24.2142 13.9339 24.359C14.0352 24.5039 14.1069 24.6672 14.145 24.8398C17.0954 37.9886 24.2098 40.2296 26.9698 40.9181C28.021 40.6688 29.0421 40.3067 30.0154 39.8381C30.2287 40.6994 30.5413 41.533 30.9469 42.3221ZM40.272 42.1675C39.9144 42.1671 39.5717 42.0248 39.3189 41.7719L35.4525 37.8982C35.218 37.6418 35.0914 37.3049 35.099 36.9576C35.1066 36.6103 35.2478 36.2792 35.4933 36.0334C35.7387 35.7875 36.0695 35.6457 36.4168 35.6375C36.7641 35.6293 37.1012 35.7553 37.358 35.9893L40.272 38.9086L46.2315 32.9363C46.3546 32.8017 46.5037 32.6934 46.6699 32.618C46.836 32.5426 47.0157 32.5017 47.1981 32.4977C47.3805 32.4937 47.5619 32.5267 47.7312 32.5948C47.9004 32.6628 48.0542 32.7645 48.1831 32.8936C48.312 33.0227 48.4134 33.1767 48.4811 33.3461C48.5489 33.5155 48.5816 33.6969 48.5773 33.8793C48.573 34.0617 48.5317 34.2413 48.456 34.4073C48.3804 34.5733 48.2718 34.7223 48.137 34.8452L41.2244 41.7719C41.0993 41.8974 40.9506 41.9969 40.7869 42.0648C40.6233 42.1327 40.4478 42.1676 40.2706 42.1675H40.272Z" fill="#F23936"/>
</svg>
