<svg width="25" height="25" viewBox="0 0 25 25" fill="none" xmlns="http://www.w3.org/2000/svg">
<path d="M4.1665 7.5V21.6667C4.1665 22.5871 4.91275 23.3333 5.83317 23.3333H19.1665C20.0869 23.3333 20.8332 22.5871 20.8332 21.6667V7.5H4.1665ZM9.1665 20C9.1665 20.46 8.79317 20.8333 8.33317 20.8333C7.87317 20.8333 7.49984 20.46 7.49984 20V10.8333C7.49984 10.3733 7.87317 10 8.33317 10C8.79317 10 9.1665 10.3733 9.1665 10.8333V20ZM13.3332 20C13.3332 20.46 12.9598 20.8333 12.4998 20.8333C12.0398 20.8333 11.6665 20.46 11.6665 20V10.8333C11.6665 10.3733 12.0398 10 12.4998 10C12.9598 10 13.3332 10.3733 13.3332 10.8333V20ZM17.4998 20C17.4998 20.46 17.1265 20.8333 16.6665 20.8333C16.2065 20.8333 15.8332 20.46 15.8332 20V10.8333C15.8332 10.3733 16.2065 10 16.6665 10C17.1265 10 17.4998 10.3733 17.4998 10.8333V20Z" fill="black"/>
<path d="M20.8332 3.33317H15.8332V2.9165C15.8332 2.22609 15.2732 1.6665 14.5832 1.6665H10.4165C9.7265 1.6665 9.1665 2.22609 9.1665 2.9165V3.33317H4.1665C3.4765 3.33317 2.9165 3.89275 2.9165 4.58317V5.83317H22.0832V4.58317C22.0832 3.89275 21.5232 3.33317 20.8332 3.33317Z" fill="black"/>
</svg>
