<svg width="142" height="34" viewBox="0 0 142 34" fill="none" xmlns="http://www.w3.org/2000/svg">
<g clip-path="url(#clip0_1_12382)">
<path d="M50.6525 12.5146V14.3742H50.7098C51.3842 13.3786 52.5037 12.2061 54.9851 12.2061C56.9156 12.2061 58.3965 13.1811 59.0312 14.6539H59.0885C59.6306 13.9093 60.252 13.3457 60.9484 12.9466C61.7726 12.4735 62.6894 12.2019 63.8441 12.2019C66.4578 12.2019 68.7717 13.8887 68.7717 18.1427V26.2103H64.7873V18.7063C64.7873 16.5505 64.0028 15.304 62.372 15.304C61.1776 15.304 60.3093 16.0527 59.9788 16.9743C59.8642 17.291 59.8113 17.723 59.8113 18.0851V26.2144H55.8269V18.4018C55.8269 16.5711 55.0732 15.2998 53.4645 15.2998C52.1775 15.2998 51.371 16.2461 51.0404 17.0565C50.8993 17.4021 50.8553 17.8012 50.8553 18.1756V26.2103H46.8665V12.5146H50.6525ZM89.337 12.5146V15.0983H89.4472C90.1788 13.1235 91.9154 12.2061 93.4404 12.2061C93.8238 12.2061 94.0354 12.2349 94.3439 12.2925V15.8799C93.9781 15.8306 93.6387 15.7812 93.1627 15.7812C91.435 15.7812 90.2317 16.7192 89.9276 18.1879C89.8615 18.4924 89.8395 18.8215 89.8395 19.2V26.2144H85.7493V12.5146H89.337ZM99.8974 7.97681V12.2883H103.353V15.7771H99.8974V20.9238C99.8974 22.59 100.351 23.3963 101.7 23.3963C102.335 23.3963 102.802 23.3223 103.207 23.2276L103.26 26.1198C102.718 26.3091 101.563 26.5148 100.391 26.5148C99.0114 26.5148 97.8611 26.0663 97.1603 25.3711C96.3581 24.5771 95.9879 23.277 95.9879 21.4257V7.97681H99.8974ZM44.0898 26.2103H40.1231V7.97681H44.0898V26.2103ZM33.5118 21.3187C33.5118 21.5697 33.4898 21.833 33.4149 22.0592C33.1063 23.0096 32.0529 23.8118 30.7395 23.8118C29.6421 23.8118 28.7694 23.2318 28.7694 22.0016C28.7694 20.1215 30.9907 19.599 33.5162 19.6114V21.3187H33.5118ZM37.4742 18.0398C37.4742 14.9337 36.0549 12.2061 31.2552 12.2061C28.7914 12.2061 26.8345 12.852 25.7679 13.4279L26.548 15.9211C27.5221 15.3451 29.0779 14.872 30.55 14.872C32.9873 14.8679 33.384 16.1597 33.384 16.9866V17.1841C28.073 17.1759 24.7189 18.8914 24.7189 22.3884C24.7189 24.5236 26.4246 26.523 29.3952 26.523C31.2243 26.523 32.7493 25.8442 33.6661 24.754H33.7542C33.7542 24.754 34.3625 27.1195 37.7033 26.2144C37.527 25.2271 37.4697 24.178 37.4697 22.915V18.0398H37.4742ZM4.79266 7.97681C5.20256 9.9063 6.36613 15.5097 6.36613 15.5097C6.85536 17.8135 7.30493 20.2285 7.6443 22.1374H7.70601C8.03657 20.1092 8.55665 18.1879 9.11199 15.81L11.0733 7.97681H15.4147L17.2482 16.0116C17.7286 18.2455 18.1121 19.9693 18.4162 22.0469H18.4735C18.8041 19.9487 19.236 18.155 19.7076 15.8594L21.4706 7.97681H25.6357L20.4745 26.2103C17.1865 26.8809 15.926 25.6467 15.4764 23.6884C15.0268 21.726 14.1453 17.9946 14.1453 17.9946C13.6914 15.9499 13.3388 14.5099 13.092 12.4118H13.0302C12.6776 14.4894 12.3074 15.9457 11.7609 17.9904L9.59682 26.2144C6.23832 26.8398 5.07474 25.9141 4.43125 23.4004C3.8759 21.2488 0.411621 7.98092 0.411621 7.98092H4.79266V7.97681ZM79.1381 21.3187C79.1381 21.5697 79.1161 21.833 79.0411 22.0592C78.7326 23.0096 77.6792 23.8118 76.3658 23.8118C75.2683 23.8118 74.3957 23.2318 74.3957 22.0016C74.3957 20.1215 76.617 19.599 79.1425 19.6114V21.3187H79.1381ZM83.1004 18.0398C83.1004 14.9337 81.6812 12.2061 76.8815 12.2061C74.4177 12.2061 72.4608 12.852 71.3942 13.4279L72.1743 15.9211C73.1483 15.3451 74.7042 14.872 76.1763 14.872C78.6092 14.8679 79.0103 16.1597 79.0103 16.9866V17.1841C73.7037 17.1759 70.3496 18.8914 70.3496 22.3884C70.3496 24.5236 72.0597 26.523 75.0259 26.523C76.8506 26.523 78.38 25.8442 79.2924 24.754H79.3849C79.3849 24.754 79.9931 27.1195 83.334 26.2144C83.1577 25.2271 83.1004 24.178 83.1004 22.915V18.0398Z" fill="#041E42"/>
<path d="M119.433 19.9307C119.824 20.5965 119.797 21.3397 119.38 21.6791L112.166 26.6238C111.415 27.0491 110.29 26.5336 109.653 25.4553C109.012 24.3727 109.126 23.1655 109.877 22.7402L117.864 19.1059C118.365 18.9168 119.042 19.2648 119.433 19.9307ZM128.927 19.9307C129.322 19.2648 129.994 18.9211 130.495 19.1016L138.487 22.7359C139.238 23.1612 139.348 24.3684 138.711 25.451C138.069 26.5293 136.94 27.0405 136.193 26.6195L128.979 21.6748C128.567 21.3397 128.536 20.5923 128.927 19.9307ZM124.178 22.6114C124.964 22.6114 125.61 23.0066 125.698 23.5264L126.475 32.1097C126.475 32.9603 125.46 33.6562 124.182 33.6562C122.908 33.6562 121.889 32.9603 121.889 32.1097L122.662 23.5264C122.75 23.0066 123.396 22.6114 124.178 22.6114ZM128.979 12.8252L136.193 7.87623C136.94 7.45093 138.069 7.96215 138.711 9.04473C139.348 10.1273 139.238 11.3345 138.487 11.7598L130.495 15.3984C129.994 15.5789 129.318 15.2352 128.927 14.5693C128.536 13.9035 128.567 13.1603 128.979 12.8252ZM117.864 15.3984L109.877 11.7598C109.13 11.3345 109.016 10.1273 109.653 9.04473C110.29 7.96215 111.419 7.45093 112.166 7.87623L119.38 12.8252C119.797 13.156 119.824 13.9035 119.433 14.5693C119.042 15.2352 118.365 15.5789 117.864 15.3984ZM122.662 10.9736L121.889 2.39029C121.889 1.53969 122.904 0.84375 124.182 0.84375C125.46 0.84375 126.475 1.53969 126.475 2.39029L125.698 10.9736C125.61 11.4891 124.964 11.8886 124.178 11.8886C123.396 11.8886 122.75 11.4891 122.662 10.9736ZM140.661 26.5894V26.3746H140.859C140.925 26.3746 140.969 26.4176 140.969 26.482C140.969 26.5421 140.925 26.5894 140.859 26.5894H140.661ZM140.499 26.9803C140.499 27.0018 140.516 27.0233 140.543 27.0233H140.626C140.648 27.0233 140.67 27.0018 140.67 26.9803V26.7355H140.806L140.916 26.9932C140.925 27.0104 140.938 27.0233 140.956 27.0233H141.057C141.087 27.0233 141.109 26.9932 141.096 26.9632C141.057 26.8858 141.017 26.8042 140.978 26.7226C141.044 26.7011 141.145 26.6367 141.145 26.482C141.145 26.3188 141.008 26.2242 140.872 26.2242H140.543C140.521 26.2242 140.499 26.2457 140.499 26.2672V26.9803ZM140.143 26.6238C140.143 26.2758 140.433 25.9923 140.789 25.9923C141.145 25.9923 141.435 26.2715 141.435 26.6238C141.435 26.9717 141.149 27.2553 140.789 27.2553C140.428 27.2553 140.143 26.9717 140.143 26.6238ZM139.989 26.6238C139.989 27.0534 140.345 27.4056 140.789 27.4056C141.228 27.4056 141.588 27.0534 141.588 26.6238C141.588 26.1942 141.228 25.8419 140.789 25.8419C140.345 25.8419 139.989 26.1942 139.989 26.6238Z" fill="#FFC124"/>
</g>
<defs>
<clipPath id="clip0_1_12382">
<rect width="141.176" height="32.8125" fill="white" transform="translate(0.411621 0.84375)"/>
</clipPath>
</defs>
</svg>
