<svg width="16" height="17" viewBox="0 0 16 17" fill="none" xmlns="http://www.w3.org/2000/svg">
<path d="M7.992 0.257812C3.576 0.257812 0 3.84181 0 8.25781C0 12.6738 3.576 16.2578 7.992 16.2578C12.416 16.2578 16 12.6738 16 8.25781C16 3.84181 12.416 0.257812 7.992 0.257812ZM13.536 5.05781H11.176C10.92 4.05781 10.552 3.09781 10.072 2.20981C11.544 2.71381 12.768 3.73781 13.536 5.05781ZM8 1.88981C8.664 2.84981 9.184 3.91381 9.528 5.05781H6.472C6.816 3.91381 7.336 2.84981 8 1.88981ZM1.808 9.85781C1.68 9.34581 1.6 8.80981 1.6 8.25781C1.6 7.70581 1.68 7.16981 1.808 6.65781H4.512C4.448 7.18581 4.4 7.71381 4.4 8.25781C4.4 8.80181 4.448 9.32981 4.512 9.85781H1.808ZM2.464 11.4578H4.824C5.08 12.4578 5.448 13.4178 5.928 14.3058C4.456 13.8018 3.232 12.7858 2.464 11.4578ZM4.824 5.05781H2.464C3.232 3.72981 4.456 2.71381 5.928 2.20981C5.448 3.09781 5.08 4.05781 4.824 5.05781ZM8 14.6258C7.336 13.6658 6.816 12.6018 6.472 11.4578H9.528C9.184 12.6018 8.664 13.6658 8 14.6258ZM9.872 9.85781H6.128C6.056 9.32981 6 8.80181 6 8.25781C6 7.71381 6.056 7.17781 6.128 6.65781H9.872C9.944 7.17781 10 7.71381 10 8.25781C10 8.80181 9.944 9.32981 9.872 9.85781ZM10.072 14.3058C10.552 13.4178 10.92 12.4578 11.176 11.4578H13.536C12.768 12.7778 11.544 13.8018 10.072 14.3058ZM11.488 9.85781C11.552 9.32981 11.6 8.80181 11.6 8.25781C11.6 7.71381 11.552 7.18581 11.488 6.65781H14.192C14.32 7.16981 14.4 7.70581 14.4 8.25781C14.4 8.80981 14.32 9.34581 14.192 9.85781H11.488Z" fill="white"/>
</svg>
