<svg width="26" height="26" viewBox="0 0 26 26" fill="none" xmlns="http://www.w3.org/2000/svg">
<path fill-rule="evenodd" clip-rule="evenodd" d="M13.0214 25.0638C19.7193 25.0638 25.149 19.6341 25.149 12.9362C25.149 6.23825 19.7193 0.808511 13.0214 0.808511C6.32345 0.808511 0.893716 6.23825 0.893716 12.9362C0.893716 19.6341 6.32345 25.0638 13.0214 25.0638ZM13.0214 25.8723C20.1658 25.8723 25.9575 20.0806 25.9575 12.9362C25.9575 5.79172 20.1658 0 13.0214 0C5.87693 0 0.0852051 5.79172 0.0852051 12.9362C0.0852051 20.0806 5.87693 25.8723 13.0214 25.8723Z" fill="white"/>
<path d="M5.07748 8.74392C5.15171 7.60116 6.07047 6.70558 7.21424 6.64891C8.87048 6.56686 11.2377 6.4679 13.0214 6.4679C14.805 6.4679 17.1723 6.56686 18.8285 6.64891C19.9723 6.70558 20.8911 7.60116 20.9653 8.74392C21.0364 9.83876 21.1065 11.1859 21.1065 12.243C21.1065 13.3 21.0364 14.6472 20.9653 15.742C20.8911 16.8848 19.9723 17.7804 18.8285 17.837C17.1723 17.9191 14.805 18.018 13.0214 18.018C11.2377 18.018 8.87048 17.9191 7.21424 17.837C6.07047 17.7804 5.15171 16.8848 5.07748 15.742C5.00637 14.6472 4.93628 13.3 4.93628 12.243C4.93628 11.1859 5.00637 9.83876 5.07748 8.74392Z" fill="white"/>
<path d="M11.2888 9.93372V14.5538L15.9089 12.2437L11.2888 9.93372Z" fill="#A8AF3E"/>
</svg>
